<?xml version="1.0" encoding="UTF-8" standalone="no"?>
<svg
   xmlns:osb="http://www.openswatchbook.org/uri/2009/osb"
   xmlns:dc="http://purl.org/dc/elements/1.1/"
   xmlns:cc="http://creativecommons.org/ns#"
   xmlns:rdf="http://www.w3.org/1999/02/22-rdf-syntax-ns#"
   xmlns:svg="http://www.w3.org/2000/svg"
   xmlns="http://www.w3.org/2000/svg"
   xmlns:xlink="http://www.w3.org/1999/xlink"
   xmlns:sodipodi="http://sodipodi.sourceforge.net/DTD/sodipodi-0.dtd"
   xmlns:inkscape="http://www.inkscape.org/namespaces/inkscape"
   id="graph_11"
   width="1200"
   height="500"
   version="1.1"
   sodipodi:docname="integrals.svg"
   inkscape:version="0.92.3 (2405546, 2018-03-11)">
  <metadata
     id="metadata351">
    <rdf:RDF>
      <cc:Work
         rdf:about="">
        <dc:format>image/svg+xml</dc:format>
        <dc:type
           rdf:resource="http://purl.org/dc/dcmitype/StillImage" />
      </cc:Work>
    </rdf:RDF>
  </metadata>
  <defs
     id="defs349">
    <pattern
       inkscape:isstock="true"
       inkscape:stockid="Stripes 1:2"
       id="Strips1_2"
       patternTransform="translate(0,0) scale(10,10)"
       height="1"
       width="3"
       patternUnits="userSpaceOnUse"
       inkscape:collect="always">
      <rect
         id="rect1714"
         height="2"
         width="1"
         y="-0.5"
         x="0"
         style="fill:black;stroke:none" />
    </pattern>
    <linearGradient
       id="linearGradient1740"
       osb:paint="solid">
      <stop
         style="stop-color:#000000;stop-opacity:1;"
         offset="0"
         id="stop1738" />
    </linearGradient>
    <pattern
       inkscape:collect="always"
       xlink:href="#pattern4471"
       id="pattern4518"
       patternTransform="translate(883.64425,48.285227)" />
    <pattern
       inkscape:collect="always"
       xlink:href="#Wavy"
       id="pattern4514"
       patternTransform="translate(-0.445435,1.0872192e-6)" />
    <linearGradient
       id="linearGradient4506"
       osb:paint="solid">
      <stop
         style="stop-color:#000000;stop-opacity:1;"
         offset="0"
         id="stop4504" />
    </linearGradient>
    <pattern
       inkscape:isstock="true"
       inkscape:stockid="Wavy"
       id="Wavy"
       height="5.1805778"
       width="30.066020"
       patternUnits="userSpaceOnUse"
       inkscape:collect="always">
      <path
         id="path2559"
         d="M 7.597,0.061 C 5.079,-0.187 2.656,0.302 -0.01,1.788 L -0.01,3.061 C 2.773,1.431 5.173,1.052 7.472,1.280 C 9.770,1.508 11.969,2.361 14.253,3.218 C 18.820,4.931 23.804,6.676 30.066,3.061 L 30.062,1.788 C 23.622,5.497 19.246,3.770 14.691,2.061 C 12.413,1.207 10.115,0.311 7.597,0.061 z "
         style="fill:black;stroke:none;" />
    </pattern>
    <pattern
       inkscape:collect="always"
       xlink:href="#pattern4478"
       id="pattern4498"
       patternTransform="translate(913.54246,23.118376)" />
    <pattern
       inkscape:collect="always"
       xlink:href="#pattern4471"
       id="pattern4478"
       patternTransform="translate(896.31631,15.697881)" />
    <pattern
       inkscape:collect="always"
       xlink:href="#pattern4456"
       id="pattern4463"
       patternTransform="matrix(0.91374357,0,0,0.90882007,901.02468,20.267636)" />
    <linearGradient
       id="linearGradient3973"
       osb:paint="solid">
      <stop
         style="stop-color:#9b9893;stop-opacity:1;"
         offset="0"
         id="stop3971" />
    </linearGradient>
    <pattern
       patternUnits="userSpaceOnUse"
       width="13.664062"
       height="9.0761719"
       patternTransform="translate(135.53603,2.6137495)"
       id="pattern4334">
      <g
         id="g80"
         style="opacity:1;fill:#000000;stroke:none;stroke-width:1px"
         transform="translate(6.8261719,-2.6137495)">
        <text
           id="text78"
           x="0"
           dy="0.70999998em"
           y="3"
           style="text-anchor:middle;fill:#000000;stroke:none;stroke-width:1px">80</text>
      </g>
    </pattern>
    <pattern
       patternUnits="userSpaceOnUse"
       width="7.8802082"
       height="20.238491"
       patternTransform="translate(931.82754,8.902969)"
       id="pattern4344">
      <path
         inkscape:connector-curvature="0"
         id="path4342"
         d="M 0.25824909,0.09485219 7.6219591,20.143639"
         style="fill:none;stroke:#000000;stroke-width:0.55023462px;stroke-linecap:butt;stroke-linejoin:miter;stroke-opacity:1" />
    </pattern>
    <pattern
       patternUnits="userSpaceOnUse"
       width="13.628438"
       height="13.96987"
       patternTransform="translate(960.74901,-10.578091)"
       id="pattern4429">
      <path
         sodipodi:open="true"
         inkscape:transform-center-y="-2.6500047"
         inkscape:transform-center-x="1.1265575"
         d="M 1.8748916,2.9415086 A 6.314383,6.4904113 0 0 1 10.746421,1.9066321 6.314383,6.4904113 0 0 1 11.75603,11.025149 6.314383,6.4904113 0 0 1 2.8851374,12.065781 6.314383,6.4904113 0 0 1 1.8699303,2.94792"
         sodipodi:end="3.8128822"
         sodipodi:start="3.8141444"
         sodipodi:ry="6.4904113"
         sodipodi:rx="6.314383"
         sodipodi:cy="6.9849315"
         sodipodi:cx="6.81422"
         sodipodi:type="arc"
         id="path4409"
         style="fill:none;fill-opacity:1;fill-rule:nonzero;stroke:#000000;stroke-width:1;stroke-miterlimit:4;stroke-dasharray:none;stroke-dashoffset:0;stroke-opacity:1" />
    </pattern>
    <pattern
       patternUnits="userSpaceOnUse"
       width="9.1276156"
       height="8.5607055"
       patternTransform="translate(961.41897,-8.9225826)"
       id="pattern4456">
      <path
         d="M 1.3764678,1.927673 A 4.0746465,3.7765019 0 0 1 7.1012311,1.3254894 4.0746465,3.7765019 0 0 1 7.7527538,6.6311785 4.0746465,3.7765019 0 0 1 2.0283999,7.2366957 4.0746465,3.7765019 0 0 1 1.3732806,1.931387"
         sodipodi:open="true"
         sodipodi:end="3.8128812"
         sodipodi:start="3.8141378"
         sodipodi:ry="3.7765019"
         sodipodi:rx="4.0746465"
         sodipodi:cy="4.280354"
         sodipodi:cx="4.5638137"
         sodipodi:type="arc"
         id="path4454"
         style="fill:#1d0000;fill-opacity:1;fill-rule:nonzero;stroke:#000000;stroke-width:1;stroke-miterlimit:4;stroke-dasharray:none;stroke-dashoffset:0;stroke-opacity:1" />
    </pattern>
    <pattern
       patternUnits="userSpaceOnUse"
       width="33.259747"
       height="15.238517"
       patternTransform="translate(888.36578,16.757952)"
       id="pattern4471">
      <g
         style="stroke:none"
         id="g4469"
         transform="translate(-888.36578,-16.757952)">
        <rect
           style="fill:url(#pattern4463);stroke:none;stroke-width:0.91127849px;stroke-opacity:1"
           width="8.3403006"
           height="7.7801404"
           x="901.02466"
           y="20.267635"
           id="rect4459" />
        <rect
           style="fill:none;fill-opacity:1;fill-rule:nonzero;stroke:none;stroke-width:1.02190113;stroke-miterlimit:4;stroke-dasharray:none;stroke-dashoffset:0;stroke-opacity:1"
           id="rect4465"
           width="33.259747"
           height="15.238517"
           x="888.36578"
           y="16.757952"
           rx="0"
           ry="0" />
      </g>
    </pattern>
  </defs>
  <sodipodi:namedview
     pagecolor="#ffffff"
     bordercolor="#666666"
     borderopacity="1"
     objecttolerance="10"
     gridtolerance="10"
     guidetolerance="10"
     inkscape:pageopacity="0"
     inkscape:pageshadow="2"
     inkscape:window-width="1885"
     inkscape:window-height="991"
     id="namedview347"
     showgrid="false"
     inkscape:zoom="0.94333334"
     inkscape:cx="694.15007"
     inkscape:cy="87.900693"
     inkscape:window-x="18"
     inkscape:window-y="0"
     inkscape:window-maximized="0"
     inkscape:current-layer="g342"
     showguides="false" />
  <g
     class="wrap d3lineWithLegend"
     stroke="none"
     fill="#000000"
     stroke-width="1px"
     id="g344">
    <g
       transform="translate(60,40)"
       stroke="none"
       fill="#000000"
       stroke-width="1px"
       id="g342">
      <g
         class="x axis"
         transform="translate(0,400)"
         stroke="none"
         fill="#000000"
         stroke-width="1px"
         id="g246">
        <text
           class="axislabel"
           x="565"
           y="40"
           id="text50"
           style="text-anchor:middle;fill:#000000;stroke:none;stroke-width:1px">Time (s)</text>
        <g
           transform="translate(0,0)"
           style="opacity: 1;"
           stroke="none"
           fill="#000000"
           stroke-width="1px"
           id="g56">
          <line
             class="tick zero"
             y2="-400"
             x2="0"
             id="line52"
             stroke-width="1px"
             stroke="#000000"
             fill="none"
             style="stroke:#cacaca;stroke-opacity:1" />
          <text
             y="3"
             dy=".71em"
             text-anchor="middle"
             x="0"
             stroke="none"
             fill="#000000"
             stroke-width="1px"
             id="text54">0</text>
        </g>
        <g
           transform="translate(35.59055118110236,0)"
           style="opacity: 1;"
           stroke="none"
           fill="#000000"
           stroke-width="1px"
           id="g62">
          <text
             y="3"
             dy=".71em"
             text-anchor="middle"
             x="0"
             stroke="none"
             fill="#000000"
             stroke-width="1px"
             id="text60">20</text>
        </g>
        <g
           transform="translate(71.18110236220473,0)"
           style="opacity: 1;"
           stroke="none"
           fill="#000000"
           stroke-width="1px"
           id="g68">
          <text
             y="3"
             dy=".71em"
             text-anchor="middle"
             x="0"
             stroke="none"
             fill="#000000"
             stroke-width="1px"
             id="text66">40</text>
        </g>
        <g
           transform="translate(106.77165354330708,0)"
           style="opacity: 1;"
           stroke="none"
           fill="#000000"
           stroke-width="1px"
           id="g74">
          <text
             y="3"
             dy=".71em"
             text-anchor="middle"
             x="0"
             stroke="none"
             fill="#000000"
             stroke-width="1px"
             id="text72">60</text>
        </g>
        <rect
           style="stroke:none;fill:url(#pattern4334)"
           width="13.664062"
           height="9.0761719"
           x="135.53603"
           y="2.6137495"
           id="rect4338" />
        <g
           transform="translate(177.95275590551182,0)"
           style="opacity: 1;"
           id="g86"
           stroke-width="1px"
           stroke="none"
           fill="#000000">
          <text
             y="3"
             dy=".71em"
             x="0"
             id="text84"
             text-anchor="middle"
             stroke-width="1px"
             stroke="none"
             fill="#000000">100</text>
        </g>
        <g
           transform="translate(213.54330708661416,0)"
           style="opacity: 1;"
           stroke="none"
           fill="#000000"
           stroke-width="1px"
           id="g92">
          <text
             y="3"
             dy=".71em"
             text-anchor="middle"
             x="0"
             stroke="none"
             fill="#000000"
             stroke-width="1px"
             id="text90">120</text>
        </g>
        <g
           transform="translate(249.13385826771653,0)"
           style="opacity: 1;"
           stroke="none"
           fill="#000000"
           stroke-width="1px"
           id="g98">
          <text
             y="3"
             dy=".71em"
             text-anchor="middle"
             x="0"
             stroke="none"
             fill="#000000"
             stroke-width="1px"
             id="text96">140</text>
        </g>
        <g
           transform="translate(284.7244094488189,0)"
           style="opacity: 1;"
           stroke="none"
           fill="#000000"
           stroke-width="1px"
           id="g104">
          <text
             y="3"
             dy=".71em"
             text-anchor="middle"
             x="0"
             stroke="none"
             fill="#000000"
             stroke-width="1px"
             id="text102">160</text>
        </g>
        <g
           transform="translate(320.31496062992125,0)"
           style="opacity: 1;"
           stroke="none"
           fill="#000000"
           stroke-width="1px"
           id="g110">
          <text
             y="3"
             dy=".71em"
             text-anchor="middle"
             x="0"
             stroke="none"
             fill="#000000"
             stroke-width="1px"
             id="text108">180</text>
        </g>
        <g
           transform="translate(355.90551181102364,0)"
           style="opacity: 1;"
           stroke="none"
           fill="#000000"
           stroke-width="1px"
           id="g116">
          <text
             y="3"
             dy=".71em"
             text-anchor="middle"
             x="0"
             stroke="none"
             fill="#000000"
             stroke-width="1px"
             id="text114">200</text>
        </g>
        <g
           transform="translate(391.496062992126,0)"
           style="opacity: 1;"
           stroke="none"
           fill="#000000"
           stroke-width="1px"
           id="g122">
          <text
             y="3"
             dy=".71em"
             text-anchor="middle"
             x="0"
             stroke="none"
             fill="#000000"
             stroke-width="1px"
             id="text120">220</text>
        </g>
        <g
           transform="translate(427.0866141732283,0)"
           style="opacity: 1;"
           stroke="none"
           fill="#000000"
           stroke-width="1px"
           id="g128">
          <text
             y="3"
             dy=".71em"
             text-anchor="middle"
             x="0"
             stroke="none"
             fill="#000000"
             stroke-width="1px"
             id="text126">240</text>
        </g>
        <g
           transform="translate(462.6771653543307,0)"
           style="opacity: 1;"
           stroke="none"
           fill="#000000"
           stroke-width="1px"
           id="g134">
          <text
             y="3"
             dy=".71em"
             text-anchor="middle"
             x="0"
             stroke="none"
             fill="#000000"
             stroke-width="1px"
             id="text132">260</text>
        </g>
        <g
           transform="translate(498.26771653543307,0)"
           style="opacity: 1;"
           stroke="none"
           fill="#000000"
           stroke-width="1px"
           id="g140">
          <text
             y="3"
             dy=".71em"
             text-anchor="middle"
             x="0"
             stroke="none"
             fill="#000000"
             stroke-width="1px"
             id="text138">280</text>
        </g>
        <g
           transform="translate(533.8582677165355,0)"
           style="opacity: 1;"
           stroke="none"
           fill="#000000"
           stroke-width="1px"
           id="g146">
          <text
             y="3"
             dy=".71em"
             text-anchor="middle"
             x="0"
             stroke="none"
             fill="#000000"
             stroke-width="1px"
             id="text144">300</text>
        </g>
        <g
           transform="translate(569.4488188976378,0)"
           style="opacity: 1;"
           stroke="none"
           fill="#000000"
           stroke-width="1px"
           id="g152">
          <text
             y="3"
             dy=".71em"
             text-anchor="middle"
             x="0"
             stroke="none"
             fill="#000000"
             stroke-width="1px"
             id="text150">320</text>
        </g>
        <g
           transform="translate(605.03937007874,0)"
           style="opacity: 1;"
           stroke="none"
           fill="#000000"
           stroke-width="1px"
           id="g158">
          <text
             y="3"
             dy=".71em"
             text-anchor="middle"
             x="0"
             stroke="none"
             fill="#000000"
             stroke-width="1px"
             id="text156">340</text>
        </g>
        <g
           transform="translate(640.6299212598425,0)"
           style="opacity: 1;"
           stroke="none"
           fill="#000000"
           stroke-width="1px"
           id="g164">
          <text
             y="3"
             dy=".71em"
             text-anchor="middle"
             x="0"
             stroke="none"
             fill="#000000"
             stroke-width="1px"
             id="text162">360</text>
        </g>
        <g
           transform="translate(676.220472440945,0)"
           style="opacity: 1;"
           stroke="none"
           fill="#000000"
           stroke-width="1px"
           id="g170">
          <text
             y="3"
             dy=".71em"
             text-anchor="middle"
             x="0"
             stroke="none"
             fill="#000000"
             stroke-width="1px"
             id="text168">380</text>
        </g>
        <g
           transform="translate(711.8110236220473,0)"
           style="opacity: 1;"
           stroke="none"
           fill="#000000"
           stroke-width="1px"
           id="g176">
          <text
             y="3"
             dy=".71em"
             text-anchor="middle"
             x="0"
             stroke="none"
             fill="#000000"
             stroke-width="1px"
             id="text174">400</text>
        </g>
        <g
           transform="translate(747.4015748031495,0)"
           style="opacity: 1;"
           stroke="none"
           fill="#000000"
           stroke-width="1px"
           id="g182">
          <text
             y="3"
             dy=".71em"
             text-anchor="middle"
             x="0"
             stroke="none"
             fill="#000000"
             stroke-width="1px"
             id="text180">420</text>
        </g>
        <g
           transform="translate(782.992125984252,0)"
           style="opacity: 1;"
           stroke="none"
           fill="#000000"
           stroke-width="1px"
           id="g188">
          <text
             y="3"
             dy=".71em"
             text-anchor="middle"
             x="0"
             stroke="none"
             fill="#000000"
             stroke-width="1px"
             id="text186">440</text>
        </g>
        <g
           transform="translate(818.5826771653544,0)"
           style="opacity: 1;"
           stroke="none"
           fill="#000000"
           stroke-width="1px"
           id="g194">
          <text
             y="3"
             dy=".71em"
             text-anchor="middle"
             x="0"
             stroke="none"
             fill="#000000"
             stroke-width="1px"
             id="text192">460</text>
        </g>
        <g
           transform="translate(854.1732283464567,0)"
           style="opacity: 1;"
           stroke="none"
           fill="#000000"
           stroke-width="1px"
           id="g200">
          <text
             y="3"
             dy=".71em"
             text-anchor="middle"
             x="0"
             stroke="none"
             fill="#000000"
             stroke-width="1px"
             id="text198">480</text>
        </g>
        <g
           transform="translate(889.763779527559,0)"
           style="opacity: 1;"
           stroke="none"
           fill="#000000"
           stroke-width="1px"
           id="g206">
          <text
             y="3"
             dy=".71em"
             text-anchor="middle"
             x="0"
             stroke="none"
             fill="#000000"
             stroke-width="1px"
             id="text204">500</text>
        </g>
        <g
           transform="translate(925.3543307086615,0)"
           style="opacity: 1;"
           stroke="none"
           fill="#000000"
           stroke-width="1px"
           id="g212">
          <text
             y="3"
             dy=".71em"
             text-anchor="middle"
             x="0"
             stroke="none"
             fill="#000000"
             stroke-width="1px"
             id="text210">520</text>
        </g>
        <g
           transform="translate(960.9448818897638,0)"
           style="opacity: 1;"
           stroke="none"
           fill="#000000"
           stroke-width="1px"
           id="g218">
          <text
             y="3"
             dy=".71em"
             text-anchor="middle"
             x="0"
             stroke="none"
             fill="#000000"
             stroke-width="1px"
             id="text216">540</text>
        </g>
        <g
           transform="translate(996.5354330708661,0)"
           style="opacity: 1;"
           stroke="none"
           fill="#000000"
           stroke-width="1px"
           id="g224">
          <text
             y="3"
             dy=".71em"
             text-anchor="middle"
             x="0"
             stroke="none"
             fill="#000000"
             stroke-width="1px"
             id="text222">560</text>
        </g>
        <g
           transform="translate(1032.1259842519685,0)"
           style="opacity: 1;"
           stroke="none"
           fill="#000000"
           stroke-width="1px"
           id="g230">
          <text
             y="3"
             dy=".71em"
             text-anchor="middle"
             x="0"
             stroke="none"
             fill="#000000"
             stroke-width="1px"
             id="text228">580</text>
        </g>
        <g
           transform="translate(1067.716535433071,0)"
           style="opacity: 1;"
           stroke="none"
           fill="#000000"
           stroke-width="1px"
           id="g236">
          <text
             y="3"
             dy=".71em"
             text-anchor="middle"
             x="0"
             stroke="none"
             fill="#000000"
             stroke-width="1px"
             id="text234">600</text>
        </g>
        <g
           transform="translate(1103.3070866141734,0)"
           style="opacity: 1;"
           stroke="none"
           fill="#000000"
           stroke-width="1px"
           id="g242">
          <text
             y="3"
             dy=".71em"
             text-anchor="middle"
             x="0"
             stroke="none"
             fill="#000000"
             stroke-width="1px"
             id="text240">620</text>
        </g>
        <path
           class="domain"
           d="M0,0V0H1130V0"
           id="path244"
           stroke-width="1px"
           stroke="#000000"
           fill="none"
           style="stroke:#cacaca;stroke-opacity:1" />
      </g>
      <g
         class="y axis"
         id="g300"
         stroke-width="1px"
         stroke="none"
         fill="#000000">
        <text
           class="axislabel"
           transform="rotate(-90)"
           y="-50"
           x="-200"
           id="text248"
           style="text-anchor:middle;fill:#000000;stroke:none;stroke-width:1px">CPU shares (%)</text>
        <text
           class="axislabel"
           transform="rotate(-90)"
           y="-50"
           x="-200"
           style="text-anchor:middle;fill:#000000;stroke:none;stroke-width:1px"
           id="text1158" />
        <g
           transform="translate(0,400)"
           style="opacity: 1;"
           id="g254"
           stroke-width="1px"
           stroke="none"
           fill="#000000">
          <line
             class="tick zero"
             x2="1130"
             y2="0"
             id="line250"
             style="stroke:#000000;stroke-opacity:1"
             stroke-width="1px"
             stroke="#000000"
             fill="none" />
          <text
             x="-3"
             dy=".32em"
             y="0"
             id="text252"
             text-anchor="end"
             stroke-width="1px"
             stroke="none"
             fill="#000000">0</text>
        </g>
        <g
           transform="translate(0,342.8571428571429)"
           style="opacity: 1;"
           id="g260"
           stroke-width="1px"
           stroke="none"
           fill="#000000">
          <line
             class="tick"
             x2="1130"
             y2="0"
             id="line256"
             style="stroke:#cacaca;stroke-opacity:1"
             stroke-width="1px"
             stroke="#000000"
             fill="none" />
          <text
             x="-3"
             dy=".32em"
             y="0"
             id="text258"
             text-anchor="end"
             stroke-width="1px"
             stroke="none"
             fill="#000000">50</text>
        </g>
        <g
           transform="translate(0,285.7142857142857)"
           style="opacity: 1;"
           id="g266"
           stroke-width="1px"
           stroke="none"
           fill="#000000">
          <line
             class="tick"
             x2="1130"
             y2="0"
             id="line262"
             style="stroke:#cacaca;stroke-opacity:1"
             stroke-width="1px"
             stroke="#000000"
             fill="none" />
          <text
             x="-3"
             dy=".32em"
             y="0"
             id="text264"
             text-anchor="end"
             stroke-width="1px"
             stroke="none"
             fill="#000000">100</text>
        </g>
        <g
           transform="translate(0,228.57142857142858)"
           style="opacity: 1;"
           id="g272"
           stroke-width="1px"
           stroke="none"
           fill="#000000">
          <line
             class="tick"
             x2="1130"
             y2="0"
             id="line268"
             style="stroke:#cacaca;stroke-opacity:1"
             stroke-width="1px"
             stroke="#000000"
             fill="none" />
          <text
             x="-3"
             dy=".32em"
             y="0"
             id="text270"
             text-anchor="end"
             stroke-width="1px"
             stroke="none"
             fill="#000000">150</text>
        </g>
        <g
           transform="translate(0,171.42857142857144)"
           style="opacity: 1;"
           id="g278"
           stroke-width="1px"
           stroke="none"
           fill="#000000">
          <line
             class="tick"
             x2="1130"
             y2="0"
             id="line274"
             style="stroke:#cacaca;stroke-opacity:1"
             stroke-width="1px"
             stroke="#000000"
             fill="none" />
          <text
             x="-3"
             dy=".32em"
             y="0"
             id="text276"
             text-anchor="end"
             stroke-width="1px"
             stroke="none"
             fill="#000000">200</text>
        </g>
        <g
           transform="translate(0,114.28571428571428)"
           style="opacity: 1;"
           id="g284"
           stroke-width="1px"
           stroke="none"
           fill="#000000">
          <line
             class="tick"
             x2="1130"
             y2="0"
             id="line280"
             style="stroke:#cacaca;stroke-opacity:1"
             stroke-width="1px"
             stroke="#000000"
             fill="none" />
          <text
             x="-3"
             dy=".32em"
             y="0"
             id="text282"
             text-anchor="end"
             stroke-width="1px"
             stroke="none"
             fill="#000000">250</text>
        </g>
        <g
           transform="translate(0,57.14285714285717)"
           style="opacity: 1;"
           id="g290"
           stroke-width="1px"
           stroke="none"
           fill="#000000">
          <line
             class="tick"
             x2="1130"
             y2="0"
             id="line286"
             style="stroke:#cacaca;stroke-opacity:1"
             stroke-width="1px"
             stroke="#000000"
             fill="none" />
          <text
             x="-3"
             dy=".32em"
             y="0"
             id="text288"
             text-anchor="end"
             stroke-width="1px"
             stroke="none"
             fill="#000000">300</text>
        </g>
        <g
           style="opacity: 1;"
           id="g296"
           stroke-width="1px"
           stroke="none"
           fill="#000000"
           transform="translate(0,0)">
          <line
             class="tick"
             x2="1130"
             y2="0"
             id="line292"
             style="stroke:#cacaca;stroke-opacity:1"
             stroke-width="1px"
             stroke="#000000"
             fill="none" />
          <text
             x="-3"
             dy=".32em"
             y="0"
             id="text294"
             text-anchor="end"
             stroke-width="1px"
             stroke="none"
             fill="#000000">350</text>
        </g>
        <path
           class="domain"
           d="M0,0H0V400H0"
           id="path298"
           style="stroke:#000000;stroke-opacity:1"
           stroke-width="1px"
           stroke="#000000"
           fill="none" />
      </g>
      <g
         class="linesWrap"
         stroke="none"
         fill="#000000"
         stroke-width="1px"
         id="g340">
        <g
           class="d3line"
           stroke="none"
           fill="#000000"
           stroke-width="1px"
           id="g338">
          <g
             transform="translate(0,0)"
             stroke="none"
             fill="#000000"
             stroke-width="1px"
             id="g336">
            <g
               class="lines"
               stroke="none"
               fill="#000000"
               stroke-width="1px"
               id="g330">
              <g
                 class="line line-0"
                 style="stroke-opacity: 1; fill-opacity: 0.5;"
                 stroke="#1f77b4"
                 fill="#1f77b4"
                 stroke-width="1px"
                 id="g304">
                <path
                   d="m 0,57.142857 h 8.8976378 17.7952752 8.897638 8.897638 8.897638 8.897638 8.897637 8.897638 8.897638 8.897638 8.897634 17.79528 l 8.89764,58.285713 h 8.89763 8.89764 8.89764 17.79528 8.89763 8.89764 8.89764 8.89764 8.89763 8.89764 8.89764 17.79528 8.89763 8.89764 8.89764 8.89764 8.89764 8.89763 8.89764 8.89764 8.89764 8.89763 17.79528 8.89764 8.89764 8.89763 17.79528 8.89764 8.89763 8.89764 8.89764 8.89764 8.89764 8.89763 l 18.18201,-57.272059 10.10102,-0.56943 7.30752,0.127209 h 8.89764 8.89764 8.89764 8.89764 8.89763 8.89764 8.89764 17.79527 8.89764 8.89764 8.89764 8.89764 8.89763 8.89764 8.89764 8.89764 8.89763 17.79528 8.89764 8.89764 8.89763 8.89764 8.89764 8.89764 8.89763 8.89764 L 774.09449,240 h 8.89764 8.89763 8.89764 8.89764 8.89764 17.79527 8.89764 8.89764 8.89764 8.89763 8.89764 8.89764 8.89764 8.89764 8.89763 17.79528 8.89764 8.89763 8.89764 8.89764 8.89764 8.89764 8.89763 8.89767 17.7952 8.8977 8.8976 8.8977 8.8976 8.8976 17.7953 8.8976 8.8977 8.8976 8.8977 8.8976"
                   id="path302"
                   inkscape:connector-curvature="0"
                   style="fill:none;stroke:#1f77b4;stroke-width:2;stroke-miterlimit:4;stroke-dasharray:12,12;stroke-dashoffset:0"
                   sodipodi:nodetypes="cccccccccccccccccccccccccccccccccccccccccccccccccccccccccccccccccccccccccccccccccccccccccccccccccccccccccccccccccc" />
              </g>
              <g
                 class="line line-1"
                 style="stroke-opacity: 1; fill-opacity: 0.5;"
                 stroke="#ff7f0e"
                 fill="#ff7f0e"
                 stroke-width="1px"
                 id="g308">
                <path
                   d="m 0,396.11429 8.8976378,-1.14286 8.8976382,0.45714 8.897637,-1.14286 8.897638,-117.94285 8.897638,-63.35126 8.897638,-5.22017 7.004845,-9.72446 9.876908,0.54873 9.81116,-9.33855 8.897638,1.59999 7.307532,35.74569 8.63262,-0.0391 10.75276,-7.8209 9.16266,8.06824 8.63262,-59.03968 8.36759,71.50229 9.42768,-49.33086 8.89764,20.80001 8.89764,2.74286 5.71743,26.73871 12.07784,-48.22443 8.63262,48.48581 9.16266,-35.68581 8.89764,26.28572 8.89763,-40.68572 7.57255,10.38627 9.95771,13.49198 9.16266,-18.16396 8.3676,45.07339 9.42767,-68.84483 9.16266,215.55275 9.95771,-99.84261 7.57255,19.60416 8.89764,-121.14287 10.22272,59.65311 7.57255,-19.88168 8.89764,25.37144 8.89764,-27.20001 8.89763,-12.34286 7.57255,-15.46572 10.22273,23.46573 8.89764,50.97142 10.75276,-109.01241 8.3676,-19.18988 9.16266,1.18849 7.04252,10.63412 8.3676,4.02363 6.77749,-0.91944 8.10258,1.67815 12.60789,23.14023 9.69269,-22.20878 10.48775,-2.29207 6.13768,1.27293 8.49064,-23.95892 8.08932,-12.18489 10.48775,128.89187 8.89763,-47.80585 8.89764,-13.02858 8.89764,198.17143 8.89764,-199.77142 8.14806,22.19974 7.77325,-7.19311 10.7716,-5.86378 8.89764,43.60102 8.89764,-49.54388 10.77159,78.02826 5.14972,7.82852 8.14806,9.64047 9.64722,-29.78985 12.64556,9.32768 5.8993,9.509 7.77326,-8.62185 7.02368,12.15968 10.7716,-19.34295 10.02201,-12.33115 13.02034,20.98363 8.89764,-14.15131 7.02368,76.64536 7.77327,41.8288 8.89763,9.82857 8.89764,2.05715 8.89764,-12.57143 8.89764,10.28571 8.89763,4.57143 8.89764,1.37143 8.89764,2.05714 8.89764,-1.14286 8.89764,-2.05714 8.89763,-75.2 8.89764,-16.91428 8.89764,81.6 8.89764,10.97142 8.89763,0.45715 8.89764,-25.82857 8.89764,-56.68571 8.89764,29.71428 8.89764,-1.14286 8.89763,1.14286 8.89764,7.54285 8.89764,-0.22857 8.89764,6.4 8.89764,-2.97143 8.89763,1.14286 8.89764,3.2 8.89764,-4.57143 8.89764,5.02858 8.89763,-5.48572 8.89764,2.74286 8.89764,-7.54286 8.89764,6.62857 8.89764,-9.6 8.89763,5.94286 8.89767,-7.54286 8.8976,5.94286 8.8976,5.48571 8.8977,-5.71428 8.8976,-1.14286 8.8977,1.37143 8.8976,-3.88571 8.8976,7.99999 8.8977,-0.91428 8.8976,2.51428 8.8976,-3.42857 8.8977,-0.45714 8.8976,46.85714 8.8977,2.97143 L 1130,395.2"
                   id="path306"
                   inkscape:connector-curvature="0"
                   style="fill:none;stroke:#ff7f0e;stroke-width:1.5px"
                   sodipodi:nodetypes="cccccccccccccccccccccccccccccccccccccccccccccccccccccccccccccccccccccccccccccccccccccccccccccccccccccccccccccccccccccccccccccccc" />
              </g>
              <g
                 class="line line-2"
                 style="stroke-opacity: 1; fill-opacity: 0.5;"
                 stroke="#2ca02c"
                 fill="#2ca02c"
                 stroke-width="1px"
                 id="g312" />
              <g
                 class="line line-3"
                 style="stroke-opacity: 1; fill-opacity: 0.5;"
                 stroke="#d62728"
                 fill="#d62728"
                 stroke-width="1px"
                 id="g316" />
              <g
                 class="line line-4"
                 style="stroke-opacity: 1; fill-opacity: 0.5;"
                 stroke="#9467bd"
                 fill="#9467bd"
                 stroke-width="1px"
                 id="g320" />
              <g
                 class="line line-5"
                 style="stroke-opacity: 1; fill-opacity: 0.5;"
                 stroke="#8c564b"
                 fill="#8c564b"
                 stroke-width="1px"
                 id="g324">
                <path
                   d="M0,57.14285714285717L8.89763779527559,57.14285714285717L26.69291338582677,57.14285714285717L35.59055118110236,57.14285714285717L44.488188976377955,57.14285714285717L53.38582677165354,57.14285714285717L62.28346456692913,57.14285714285717L71.18110236220473,57.14285714285717L80.07874015748031,57.14285714285717L88.97637795275591,57.14285714285717L97.8740157480315,57.14285714285717L106.77165354330708,57.14285714285717L124.56692913385827,57.14285714285717L133.46456692913387,57.14285714285717L142.36220472440945,57.14285714285717L151.259842519685,57.14285714285717L160.15748031496062,57.14285714285717L177.95275590551182,57.14285714285717L186.85039370078738,57.14285714285717L195.748031496063,57.14285714285717L204.6456692913386,57.14285714285717L213.54330708661416,57.14285714285717L222.44094488188975,57.14285714285717L231.33858267716536,57.14285714285717L240.23622047244095,57.14285714285717L258.0314960629921,57.14285714285717L266.92913385826773,57.14285714285717L275.82677165354335,57.14285714285717L284.7244094488189,57.14285714285717L293.62204724409446,57.14285714285717L302.51968503937,57.14285714285717L311.4173228346457,57.14285714285717L320.31496062992125,57.14285714285717L329.2125984251968,57.14285714285717L338.1102362204725,57.14285714285717L347.00787401574803,57.14285714285717L364.8031496062992,57.14285714285717L373.70078740157476,57.14285714285717L382.5984251968504,57.14285714285717L391.496062992126,57.14285714285717L409.2913385826772,57.14285714285717L418.18897637795277,57.14285714285717L427.0866141732283,57.14285714285717L435.98425196850394,57.14285714285717L444.8818897637795,57.14285714285717L453.7795275590551,57.14285714285717L462.6771653543307,57.14285714285717L471.5748031496063,57.14285714285717L480.4724409448819,57.14285714285717L498.26771653543307,57.14285714285717L507.1653543307086,57.14285714285717L516.0629921259842,57.14285714285717L524.9606299212599,57.14285714285717L533.8582677165355,57.14285714285717L542.755905511811,57.14285714285717L551.6535433070867,57.14285714285717L560.5511811023622,57.14285714285717L569.4488188976378,57.14285714285717L587.2440944881889,57.14285714285717L596.1417322834645,57.14285714285717L605.03937007874,57.14285714285717L613.9370078740158,57.14285714285717L622.8346456692914,57.14285714285717L631.732283464567,57.14285714285717L640.6299212598425,57.14285714285717L649.5275590551181,57.14285714285717L658.4251968503936,57.14285714285717L667.3228346456692,57.14285714285717L685.1181102362206,57.14285714285717L694.0157480314961,57.14285714285717L702.9133858267717,57.14285714285717L711.8110236220473,57.14285714285717L720.7086614173228,57.14285714285717L729.6062992125984,57.14285714285717L738.503937007874,57.14285714285717L747.4015748031495,57.14285714285717L756.2992125984252,57.14285714285717L774.0944881889764,57.14285714285717L782.992125984252,57.14285714285717L791.8897637795276,57.14285714285717L800.7874015748031,57.14285714285717L809.6850393700787,57.14285714285717L818.5826771653544,57.14285714285717L836.3779527559055,57.14285714285717L845.2755905511812,57.14285714285717L854.1732283464567,57.14285714285717L863.0708661417323,57.14285714285717L871.9685039370079,57.14285714285717L880.8661417322834,57.14285714285717L889.763779527559,57.14285714285717L898.6614173228347,57.14285714285717L907.5590551181102,57.14285714285717L916.4566929133858,57.14285714285717L934.251968503937,57.14285714285717L943.1496062992126,57.14285714285717L952.0472440944882,57.14285714285717L960.9448818897638,57.14285714285717L969.8425196850394,57.14285714285717L978.740157480315,57.14285714285717L987.6377952755905,57.14285714285717L996.5354330708661,57.14285714285717L1005.4330708661417,57.14285714285717L1023.2283464566929,57.14285714285717L1032.1259842519685,57.14285714285717L1041.023622047244,57.14285714285717L1049.9212598425197,57.14285714285717L1058.8188976377953,57.14285714285717L1067.716535433071,57.14285714285717L1085.511811023622,57.14285714285717L1094.4094488188975,57.14285714285717L1103.3070866141734,57.14285714285717L1112.2047244094488,57.14285714285717L1121.1023622047244,57.14285714285717L1130,57.14285714285717"
                   stroke="#8c564b"
                   fill="none"
                   stroke-width="1.5px"
                   id="path322" />
              </g>
              <g
                 class="line line-6"
                 style="stroke-opacity: 1; fill-opacity: 0.5;"
                 stroke="#e377c2"
                 fill="#e377c2"
                 stroke-width="1px"
                 id="g328" />
            </g>
            <g
               class="point-clips"
               stroke="none"
               fill="#000000"
               stroke-width="1px"
               id="g332" />
            <g
               class="point-paths"
               stroke="none"
               fill="#000000"
               stroke-width="1px"
               id="g334" />
          </g>
        </g>
      </g>
      <path
         style="fill:none;fill-opacity:1;fill-rule:nonzero;stroke:none;stroke-width:1.21945643;stroke-miterlimit:4;stroke-dasharray:none;stroke-dashoffset:0;stroke-opacity:1"
         d="M 60.878906 97.908203 L 60.878906 122.64453 L 60.878906 147.38086 L 114.12305 147.38086 C 156.04299 147.38086 167.43627 147.58065 167.69531 148.31836 C 167.87627 148.83369 168.36304 150.18266 168.77734 151.31641 L 169.53125 153.37891 L 180.82812 153.37891 L 192.12305 153.37891 L 191.69922 150.94141 C 190.89248 146.32196 183.81055 99.370369 183.81055 98.640625 C 183.81055 98.171222 161.79696 97.908203 122.34375 97.908203 L 60.878906 97.908203 z "
         transform="translate(-60,-40)"
         id="path3299" />
      <path
         style="fill:none;fill-opacity:1;fill-rule:nonzero;stroke:none;stroke-width:1.21945643;stroke-miterlimit:4;stroke-dasharray:none;stroke-dashoffset:0;stroke-opacity:1"
         d="m 168.77799,151.31661 c -0.4143,-1.13375 -0.90134,-2.483 -1.0823,-2.99833 -0.25904,-0.73771 -11.65302,-0.93698 -53.57296,-0.93698 H 60.878804 V 122.64505 97.908808 h 61.465816 c 39.45321,0 61.46582,0.2619 61.46582,0.731303 0,0.729744 7.08116,47.682259 7.8879,52.301709 l 0.42545,2.43614 h -11.29627 -11.29626 z"
         id="path3302"
         inkscape:connector-curvature="0"
         transform="translate(-60,-40)" />
      <path
         style="fill:#e6bfe1;fill-opacity:0;fill-rule:nonzero;stroke:none;stroke-width:1.21945643;stroke-miterlimit:4;stroke-dasharray:none;stroke-dashoffset:0;stroke-opacity:1"
         d="m 183.70369,200.41431 c -0.90698,-2.98897 -4.89603,-16.05982 -8.86454,-29.04635 l -7.21549,-23.61187 -53.37243,-0.19239 -53.372426,-0.19239 V 122.64006 97.908808 h 61.368476 61.36848 l 1.27829,8.432812 c 0.70305,4.63804 2.68904,17.7089 4.4133,29.04635 l 3.13501,20.61353 169.21254,0.18903 c 93.0669,0.10397 169.21255,0.44954 169.21255,0.76793 0,0.31839 1.85192,11.02733 4.11538,23.79763 2.26346,12.7703 4.11868,23.64038 4.12271,24.15571 0.006,0.74696 -35.86451,0.93698 -176.87273,0.93698 H 185.35276 Z"
         id="path3304"
         inkscape:connector-curvature="0"
         transform="translate(-60,-40)" />
      <path
         style="fill:#e6bfe1;fill-opacity:0;fill-rule:nonzero;stroke:none;stroke-width:1.21945643;stroke-miterlimit:4;stroke-dasharray:none;stroke-dashoffset:0;stroke-opacity:1"
         d="m 168.77799,151.31661 c -0.4143,-1.13375 -0.90134,-2.483 -1.0823,-2.99833 -0.25904,-0.73771 -11.65302,-0.93698 -53.57296,-0.93698 H 60.878804 V 122.64505 97.908808 h 61.465816 c 39.45321,0 61.46582,0.2619 61.46582,0.731303 0,0.729744 7.08116,47.682259 7.8879,52.301709 l 0.42545,2.43614 h -11.29627 -11.29626 z"
         id="path3306"
         inkscape:connector-curvature="0"
         transform="translate(-60,-40)" />
      <path
         style="fill:#e6bfe1;fill-opacity:0;fill-rule:nonzero;stroke:none;stroke-width:1.21945643;stroke-miterlimit:4;stroke-dasharray:none;stroke-dashoffset:0;stroke-opacity:1"
         d="m 183.70369,200.41431 c -0.90698,-2.98897 -4.89603,-16.05982 -8.86454,-29.04635 l -7.21549,-23.61187 -53.37243,-0.19239 -53.372426,-0.19239 V 122.64006 97.908808 h 61.368476 61.36848 l 1.27829,8.432812 c 0.70305,4.63804 2.68904,17.7089 4.4133,29.04635 l 3.13501,20.61353 169.21254,0.18903 c 93.0669,0.10397 169.21255,0.44954 169.21255,0.76793 0,0.31839 1.85192,11.02733 4.11538,23.79763 2.26346,12.7703 4.11868,23.64038 4.12271,24.15571 0.006,0.74696 -35.86451,0.93698 -176.87273,0.93698 H 185.35276 Z"
         id="path3308"
         inkscape:connector-curvature="0"
         transform="translate(-60,-40)" />
      <path
         style="fill:#e6bfe1;fill-opacity:0;fill-rule:nonzero;stroke:none;stroke-width:1.21945643;stroke-miterlimit:4;stroke-dasharray:none;stroke-dashoffset:0;stroke-opacity:1"
         d="m 183.70369,200.41431 c -0.90698,-2.98897 -4.89603,-16.05982 -8.86454,-29.04635 l -7.21549,-23.61187 -53.37243,-0.19239 -53.372426,-0.19239 V 122.64006 97.908808 h 61.368476 61.36848 l 1.27829,8.432812 c 0.70305,4.63804 2.68904,17.7089 4.4133,29.04635 l 3.13501,20.61353 169.21254,0.18903 c 93.0669,0.10397 169.21255,0.44954 169.21255,0.76793 0,0.31839 1.85192,11.02733 4.11538,23.79763 2.26346,12.7703 4.11868,23.64038 4.12271,24.15571 0.006,0.74696 -35.86451,0.93698 -176.87273,0.93698 H 185.35276 Z"
         id="path3310"
         inkscape:connector-curvature="0"
         transform="translate(-60,-40)" />
      <path
         style="fill:#e6bfe1;fill-opacity:0;fill-rule:nonzero;stroke:none;stroke-width:1.21945643;stroke-miterlimit:4;stroke-dasharray:none;stroke-dashoffset:0;stroke-opacity:1"
         d="m 183.36387,199.28993 c -1.09665,-3.60737 -4.60258,-15.07599 -7.79094,-25.48583 l -5.79702,-18.92697 h 11.09574 c 6.58859,0 11.28391,0.30448 11.559,0.74958 0.30663,0.49614 57.60076,0.74958 169.45003,0.74958 92.94272,0 168.98677,0.26124 168.98677,0.58054 0,0.31929 1.85192,11.02896 4.11538,23.79926 2.26346,12.77031 4.11868,23.64038 4.12271,24.15571 0.006,0.74696 -35.864,0.93698 -176.87021,0.93698 H 185.3578 Z"
         id="path3312"
         inkscape:connector-curvature="0"
         transform="translate(-60,-40)" />
      <path
         style="fill:#e6bfe1;fill-opacity:0;fill-rule:nonzero;stroke:none;stroke-width:1.21945643;stroke-miterlimit:4;stroke-dasharray:none;stroke-dashoffset:0;stroke-opacity:1"
         d="m 183.36387,199.28993 c -1.09665,-3.60737 -4.60258,-15.07599 -7.79094,-25.48583 l -5.79702,-18.92697 h 11.09574 c 6.58859,0 11.28391,0.30448 11.559,0.74958 0.30663,0.49614 57.60076,0.74958 169.45003,0.74958 92.94272,0 168.98677,0.26124 168.98677,0.58054 0,0.31929 1.85192,11.02896 4.11538,23.79926 2.26346,12.77031 4.11868,23.64038 4.12271,24.15571 0.006,0.74696 -35.864,0.93698 -176.87021,0.93698 H 185.3578 Z"
         id="path3314"
         inkscape:connector-curvature="0"
         transform="translate(-60,-40)" />
      <path
         style="fill:none;fill-opacity:0;fill-rule:nonzero;stroke:#1f77b4;stroke-width:1.21945643;stroke-miterlimit:4;stroke-dasharray:none;stroke-dashoffset:0;stroke-opacity:0"
         d="m 540.11705,319.97282 c 0.24657,-2.78283 0.67211,-8.534 0.94565,-12.78037 0.34871,-5.41322 1.55595,-11.91 4.03939,-21.73792 3.33767,-13.20844 3.57003,-13.82259 4.02727,-10.6441 0.58711,4.08129 4.22558,45.71604 4.22558,48.35294 0,1.85596 -0.0482,1.86914 -6.8431,1.86914 h -6.8431 z"
         id="path3316"
         inkscape:connector-curvature="0"
         transform="translate(-60,-40)" />
      <path
         style="fill:none;fill-opacity:0;fill-rule:nonzero;stroke:#1f77b4;stroke-width:1.21945643;stroke-miterlimit:4;stroke-dasharray:none;stroke-dashoffset:0;stroke-opacity:0"
         d="m 819.97875,267.502 c -0.17395,-0.30921 -0.90482,-3.0077 -1.62415,-5.99667 l -1.30788,-5.43448 h -87.93571 -87.93572 l -0.39176,-2.06135 c -0.21546,-1.13374 -0.61355,-6.36209 -0.88462,-11.61854 -0.83852,-16.25996 -3.34024,-10.4208 -3.34024,7.79633 v 5.88356 h -7.12104 -7.12104 l -0.0741,-4.68489 c -0.10719,-6.77414 -0.93426,-12.77381 -1.79983,-13.05619 -0.41227,-0.1345 -2.22869,3.80222 -4.03649,8.74827 l -3.28691,8.99281 h -7.65494 -7.65493 l -1.34074,-12.9303 c -1.27722,-12.31777 -1.90459,-15.03615 -3.17659,-13.76415 -0.45488,0.45488 -1.32517,13.45804 -1.64867,24.6331 l -0.0597,2.06135 h -6.63105 -6.63106 l -0.48998,-9.11268 c -0.26949,-5.01197 -0.48999,-11.0836 -0.48999,-13.4925 0,-2.40889 -0.25298,-4.37485 -0.56218,-4.36879 -0.30921,0.006 -2.73515,3.21324 -5.39098,7.12706 -2.65583,3.91383 -5.06072,6.86036 -5.34419,6.54784 -0.28348,-0.31252 -1.59246,-6.80849 -2.90885,-14.4355 -1.31639,-7.62701 -2.56065,-14.45855 -2.76502,-15.18121 -0.35323,-1.24902 5.96936,-1.30455 128.02074,-1.12437 l 128.39231,0.18954 6.55948,27.35979 c 3.6077,15.04788 6.57043,27.61276 6.58384,27.92197 0.0134,0.3092 -2.14824,0.56219 -4.80367,0.56219 -2.65543,0 -4.97038,-0.25299 -5.14433,-0.56219 z"
         id="path3318"
         inkscape:connector-curvature="0"
         transform="translate(-60,-40)" />
      <path
         style="fill:none;fill-opacity:0;fill-rule:nonzero;stroke:#1f77b4;stroke-width:1.21945643;stroke-miterlimit:4;stroke-dasharray:none;stroke-dashoffset:0;stroke-opacity:0"
         d="m 559.8066,209.1606 c -0.25025,-0.65212 -0.45499,-1.49541 -0.45499,-1.87396 0,-0.41529 50.80311,-0.68827 128.09133,-0.68827 h 128.09134 l 0.35823,1.87395 0.35823,1.87396 H 688.25616 c -116.02283,0 -128.03713,-0.1109 -128.44956,-1.18568 z"
         id="path3320"
         inkscape:connector-curvature="0"
         transform="translate(-60,-40)" />
      <path
         style="fill:none;fill-opacity:0;fill-rule:nonzero;stroke:#1f77b4;stroke-width:0.60972822;stroke-miterlimit:4;stroke-dasharray:none;stroke-dashoffset:0;stroke-opacity:0"
         d="m 183.98856,201.85741 c -0.71828,-2.31902 -4.02409,-13.15518 -7.34625,-24.08036 -3.32215,-10.92517 -6.27538,-20.58074 -6.56273,-21.45681 l -0.52245,-1.59287 h 11.38314 c 11.05397,0 11.39001,0.0217 11.62104,0.74958 0.23745,0.74813 0.56708,0.74959 169.21388,0.74959 h 168.97597 l 0.21306,1.03067 c 0.54234,2.62349 8.4667,47.81549 8.4667,48.2849 0,0.45833 -24.43533,0.53171 -177.06819,0.53171 h -177.0682 z"
         id="path3324"
         inkscape:connector-curvature="0"
         transform="translate(-60,-40)" />
      <path
         style="fill:none;fill-opacity:0;fill-rule:nonzero;stroke:#1f77b4;stroke-width:0.60972822;stroke-miterlimit:4;stroke-dasharray:none;stroke-dashoffset:0;stroke-opacity:0"
         d="m 549.48088,206.16785 -9.62659,-0.10659 -0.15554,-1.0244 -0.1555,-1.0244 -0.0562,1.03068 -0.0562,1.03068 H 362.35269 185.27445 l -0.77218,-2.52985 c -0.42471,-1.39141 -3.93841,-12.9022 -7.80823,-25.57952 l -7.03605,-23.04968 11.23869,-0.0993 c 8.7406,-0.0772 11.30558,0.006 11.53962,0.37479 0.40405,0.63654 0.36725,-0.96235 -0.0667,-2.89903 l -0.33593,-1.49917 0.0949,1.40547 0.0949,1.40547 h -11.48871 -11.48871 l -0.89786,-2.99646 -0.89784,-2.99646 -53.31411,-0.002 -53.314097,-0.002 V 122.87009 98.133842 h 61.448837 61.44883 l 0.23508,1.405469 c 0.35954,2.149659 0.57737,2.369329 0.37164,0.374791 -0.14049,-1.362175 -0.0606,-1.78026 0.34017,-1.78026 0.28808,0 0.60885,0.210821 0.71282,0.46849 0.15123,0.374791 0.19496,0.374791 0.21863,0 0.0236,-0.374365 58.6128,-0.46849 291.61744,-0.46849 h 291.58785 v 28.296768 28.29676 H 650.55663 c -118.17456,0 -118.24675,3.8e-4 -118.24675,0.75298 0,0.63023 7.80267,45.28563 8.46366,48.43842 l 0.2161,1.03067 h 113.90688 c 113.65698,0 113.90685,10e-4 113.90685,0.74959 0,0.748 -0.22083,0.7494 -104.84795,0.66249 -57.66637,-0.0479 -109.17989,-0.13505 -114.47454,-0.19367 z M 539.30435,202.607 c -0.10396,-0.25767 -0.18904,-0.0469 -0.18904,0.46849 0,0.51533 0.0851,0.72615 0.18904,0.46848 0.10397,-0.25766 0.10397,-0.67931 0,-0.93697 z m -0.36328,-2.05423 c -0.0951,-0.36466 -0.17904,-0.15704 -0.18668,0.46136 -0.007,0.61841 0.0701,0.91676 0.17277,0.66302 0.1027,-0.25375 0.10892,-0.75971 0.0139,-1.12438 z m -0.37479,-2.24875 c -0.0951,-0.36466 -0.17904,-0.15704 -0.18669,0.46136 -0.007,0.61841 0.0701,0.91676 0.17278,0.66302 0.1027,-0.25375 0.10892,-0.75971 0.0139,-1.12438 z m -0.3863,-2.06848 c -0.10397,-0.25767 -0.18905,-0.0468 -0.18905,0.46849 0,0.51534 0.0851,0.72616 0.18905,0.46849 0.10397,-0.25767 0.10397,-0.67931 0,-0.93698 z m -0.36329,-2.05422 c -0.095,-0.36466 -0.17903,-0.15705 -0.18668,0.46135 -0.007,0.61841 0.0701,0.91677 0.17278,0.66302 0.10269,-0.25374 0.10891,-0.75971 0.0139,-1.12437 z m -0.46418,-2.89474 c -0.14335,-0.95602 -0.33731,-1.66156 -0.43101,-1.56786 -0.0937,0.0937 -0.0531,0.95256 0.0903,1.90859 0.14336,0.95602 0.33731,1.66156 0.43101,1.56786 0.0937,-0.0937 0.0531,-0.95256 -0.0903,-1.90859 z m -0.66019,-3.47672 c -0.0951,-0.36466 -0.17904,-0.15705 -0.18668,0.46136 -0.007,0.6184 0.0701,0.91676 0.17277,0.66302 0.1027,-0.25375 0.10892,-0.75972 0.0139,-1.12438 z m -0.46418,-2.89473 c -0.14336,-0.95602 -0.33731,-1.66157 -0.43101,-1.56787 -0.0937,0.0937 -0.0531,0.95256 0.0903,1.90859 0.14336,0.95602 0.33732,1.66156 0.43101,1.56787 0.0937,-0.0937 0.0531,-0.95257 -0.0903,-1.90859 z m -0.6602,-3.47673 c -0.095,-0.36466 -0.17903,-0.15705 -0.18668,0.46136 -0.008,0.61841 0.0701,0.91676 0.17278,0.66302 0.10269,-0.25375 0.10891,-0.75972 0.0139,-1.12438 z m -0.46417,-2.89473 c -0.14336,-0.95602 -0.33732,-1.66156 -0.43102,-1.56786 -0.0937,0.0937 -0.0531,0.95256 0.0903,1.90858 0.14336,0.95603 0.33731,1.66157 0.43101,1.56787 0.0937,-0.0937 0.0531,-0.95256 -0.0903,-1.90859 z m -0.6602,-3.47672 c -0.0951,-0.36466 -0.17904,-0.15705 -0.18668,0.46135 -0.008,0.61841 0.0701,0.91677 0.17278,0.66302 0.10269,-0.25374 0.10891,-0.75971 0.0139,-1.12437 z m -0.46418,-2.89474 c -0.14336,-0.95602 -0.33731,-1.66156 -0.43101,-1.56786 -0.0937,0.0937 -0.0531,0.95256 0.0903,1.90859 0.14336,0.95602 0.33732,1.66156 0.43102,1.56786 0.0937,-0.0937 0.0531,-0.95256 -0.0903,-1.90859 z m -0.66019,-3.47672 c -0.0951,-0.36466 -0.17904,-0.15705 -0.18669,0.46136 -0.007,0.6184 0.0701,0.91676 0.17278,0.66301 0.10269,-0.25374 0.10891,-0.75971 0.0139,-1.12437 z m -0.46418,-2.89473 c -0.14336,-0.95603 -0.33732,-1.66157 -0.43101,-1.56787 -0.0937,0.0937 -0.0531,0.95256 0.0903,1.90859 0.14336,0.95602 0.33731,1.66156 0.43101,1.56787 0.0937,-0.0937 0.0531,-0.95257 -0.0903,-1.90859 z m -0.6602,-3.47673 c -0.0951,-0.36466 -0.17904,-0.15705 -0.18668,0.46136 -0.008,0.61841 0.0701,0.91676 0.17278,0.66302 0.10269,-0.25375 0.10891,-0.75972 0.0139,-1.12438 z m -0.46418,-2.89473 c -0.14336,-0.95602 -0.33731,-1.66156 -0.43101,-1.56787 -0.0937,0.0937 -0.0531,0.95257 0.0903,1.90859 0.14335,0.95603 0.33731,1.66157 0.43101,1.56787 0.0937,-0.0937 0.0531,-0.95256 -0.0903,-1.90859 z m -0.6639,-2.89824 c -0.11964,-0.29899 -0.20846,-0.21018 -0.22645,0.22643 -0.0161,0.39509 0.0723,0.61646 0.19687,0.49192 0.12455,-0.12455 0.13785,-0.4478 0.0296,-0.71835 z M 194.1213,153.5093 c -0.10397,-0.25767 -0.18904,-0.0469 -0.18904,0.46849 0,0.51534 0.0851,0.72616 0.18904,0.46849 0.10397,-0.25767 0.10397,-0.67931 0,-0.93698 z m -0.36328,-2.05422 c -0.095,-0.36466 -0.17902,-0.15705 -0.18666,0.46135 -0.008,0.61841 0.0701,0.91677 0.17277,0.66302 0.10267,-0.25374 0.10891,-0.75971 0.0139,-1.12437 z m -1.9607,-3.27215 c -0.145,-1.16052 -0.34148,-2.0322 -0.43662,-1.93706 -0.0951,0.0951 -0.0543,1.1225 0.0906,2.28303 0.145,1.16052 0.34148,2.0322 0.43662,1.93706 0.0951,-0.0951 0.0543,-1.1225 -0.0906,-2.28303 z m 1.58454,0.64147 c -0.0943,-0.36073 -0.17141,-0.0656 -0.17141,0.65589 0,0.72147 0.0771,1.01662 0.17141,0.65588 0.0943,-0.36073 0.0943,-0.95103 0,-1.31177 z m -0.37342,-2.24161 c -0.095,-0.36466 -0.17903,-0.15705 -0.18667,0.46135 -0.008,0.61841 0.0701,0.91677 0.17278,0.66302 0.10266,-0.25374 0.10891,-0.75971 0.0139,-1.12437 z m -1.87533,-2.63068 c -0.0943,-0.36073 -0.17141,-0.0656 -0.17141,0.65589 0,0.72147 0.0771,1.01662 0.17141,0.65588 0.0943,-0.36073 0.0943,-0.95103 0,-1.31177 z m 1.49916,0 c -0.0943,-0.36073 -0.1714,-0.0656 -0.1714,0.65589 0,0.72147 0.0771,1.01662 0.1714,0.65588 0.0943,-0.36073 0.0943,-0.95103 0,-1.31177 z m -1.87258,-2.24161 c -0.095,-0.36467 -0.17903,-0.15705 -0.18666,0.46135 -0.008,0.61841 0.0701,0.91677 0.17277,0.66302 0.10266,-0.25374 0.10891,-0.75971 0.0139,-1.12437 z m 1.41242,-1.0234 c -0.145,-1.16053 -0.34148,-2.0322 -0.43662,-1.93706 -0.0951,0.0951 -0.0543,1.1225 0.0907,2.28302 0.145,1.16053 0.34148,2.03221 0.43662,1.93707 0.0951,-0.0951 0.0544,-1.1225 -0.0906,-2.28303 z m -1.78859,-1.60728 c -0.0943,-0.36073 -0.1714,-0.0656 -0.1714,0.65589 0,0.72147 0.0771,1.01662 0.1714,0.65588 0.0943,-0.36073 0.0943,-0.95103 0,-1.31177 z m -0.37342,-2.24161 c -0.095,-0.36467 -0.17902,-0.15705 -0.18666,0.46135 -0.008,0.61841 0.0701,0.91677 0.17278,0.66302 0.10266,-0.25375 0.10891,-0.75971 0.0139,-1.12437 z m 1.4978,-0.38193 c -0.0943,-0.36074 -0.17141,-0.0656 -0.17141,0.65589 0,0.72147 0.0771,1.01662 0.17141,0.65588 0.0943,-0.36073 0.0943,-0.95103 0,-1.31177 z m -1.87396,-2.24875 c -0.0943,-0.36073 -0.1714,-0.0656 -0.1714,0.65589 0,0.72147 0.0771,1.01662 0.1714,0.65588 0.0943,-0.36073 0.0943,-0.95103 0,-1.31177 z m 1.50054,0.007 c -0.095,-0.36466 -0.17902,-0.15704 -0.18666,0.46136 -0.008,0.61841 0.0701,0.91676 0.17277,0.66302 0.10266,-0.25375 0.10891,-0.75972 0.0139,-1.12437 z m -1.87396,-2.24875 c -0.095,-0.36465 -0.17902,-0.15704 -0.18666,0.46136 -0.008,0.61841 0.0701,0.91677 0.17277,0.66302 0.10267,-0.25375 0.10891,-0.75971 0.0139,-1.12437 z m 1.49779,-0.38192 c -0.0943,-0.36074 -0.1714,-0.0656 -0.1714,0.65589 0,0.72147 0.0771,1.01662 0.1714,0.65588 0.0943,-0.36074 0.0943,-0.95103 0,-1.31177 z m -1.87395,-2.24875 c -0.0943,-0.36074 -0.17141,-0.0656 -0.17141,0.65589 0,0.72147 0.0771,1.01662 0.17141,0.65588 0.0943,-0.36073 0.0943,-0.95103 0,-1.31177 z m 1.50053,0.007 c -0.095,-0.36466 -0.17902,-0.15705 -0.18666,0.46136 -0.008,0.61841 0.0701,0.91677 0.17278,0.66302 0.10266,-0.25375 0.10891,-0.75972 0.0139,-1.12438 z m -1.9607,-3.27214 c -0.145,-1.16053 -0.34147,-2.03221 -0.43661,-1.93707 -0.0951,0.0951 -0.0543,1.12251 0.0906,2.28303 0.145,1.16053 0.34148,2.03221 0.43661,1.93707 0.0951,-0.0951 0.0543,-1.1225 -0.0906,-2.28303 z m 1.58454,0.64147 c -0.0943,-0.36074 -0.1714,-0.0656 -0.1714,0.65589 0,0.72147 0.0771,1.01662 0.1714,0.65588 0.0943,-0.36074 0.0943,-0.95103 0,-1.31177 z m -0.37342,-2.24162 c -0.095,-0.36466 -0.17902,-0.15705 -0.18666,0.46136 -0.008,0.61841 0.0701,0.91676 0.17278,0.66302 0.10266,-0.25375 0.10891,-0.75972 0.0139,-1.12438 z m -1.87533,-2.63067 c -0.0943,-0.36074 -0.1714,-0.0656 -0.1714,0.65589 0,0.72147 0.0771,1.01662 0.1714,0.65588 0.0943,-0.36074 0.0943,-0.95103 0,-1.31177 z m 1.49917,0 c -0.0943,-0.36074 -0.17141,-0.0656 -0.17141,0.65589 0,0.72147 0.0771,1.01662 0.17141,0.65588 0.0943,-0.36074 0.0943,-0.95103 0,-1.31177 z m -1.87259,-2.24162 c -0.095,-0.36466 -0.17902,-0.15705 -0.18666,0.46136 -0.008,0.61841 0.0701,0.91676 0.17278,0.66302 0.10266,-0.25375 0.10891,-0.75972 0.0139,-1.12438 z m 1.41242,-1.02339 c -0.145,-1.16053 -0.34147,-2.03221 -0.43661,-1.93707 -0.0951,0.0951 -0.0543,1.1225 0.0907,2.28303 0.145,1.16053 0.34148,2.03221 0.43661,1.93707 0.0951,-0.0951 0.0543,-1.12251 -0.0907,-2.28303 z m -1.78858,-1.60728 c -0.0943,-0.36074 -0.1714,-0.0656 -0.1714,0.65588 0,0.72148 0.0771,1.01663 0.1714,0.65589 0.0943,-0.36074 0.0943,-0.95103 0,-1.31177 z m -0.37342,-2.24162 c -0.095,-0.36466 -0.17902,-0.15705 -0.18666,0.46136 -0.008,0.61841 0.0701,0.91676 0.17277,0.66302 0.10267,-0.25375 0.10891,-0.75972 0.0139,-1.12438 z m 1.41242,-1.02339 c -0.145,-1.16053 -0.34148,-2.03221 -0.43661,-1.93707 -0.0951,0.0951 -0.0543,1.1225 0.0907,2.28303 0.145,1.16053 0.34147,2.03221 0.43661,1.93707 0.0951,-0.0951 0.0543,-1.12251 -0.0907,-2.28303 z m -1.78858,-1.60728 c -0.0943,-0.36074 -0.17141,-0.0656 -0.17141,0.65588 0,0.72148 0.0771,1.01663 0.17141,0.65589 0.0943,-0.36074 0.0943,-0.95103 0,-1.31177 z m -0.37342,-2.24162 c -0.095,-0.36466 -0.17903,-0.15705 -0.18667,0.46136 -0.008,0.6184 0.0701,0.91676 0.17278,0.66302 0.10266,-0.25375 0.10891,-0.75972 0.0139,-1.12438 z m 1.49779,-0.38192 c -0.0943,-0.36074 -0.1714,-0.0656 -0.1714,0.65588 0,0.72148 0.0771,1.01663 0.1714,0.65589 0.0943,-0.36074 0.0943,-0.95104 0,-1.31177 z m -1.87396,-2.24875 c -0.0943,-0.36074 -0.1714,-0.0656 -0.1714,0.65588 0,0.72148 0.0771,1.01663 0.1714,0.65589 0.0943,-0.36074 0.0943,-0.95103 0,-1.31177 z m 1.50054,0.007 c -0.095,-0.36466 -0.17902,-0.15705 -0.18666,0.46136 -0.008,0.6184 0.0701,0.91676 0.17277,0.66302 0.10267,-0.25375 0.10892,-0.75972 0.0139,-1.12438 z m -1.9607,-3.27214 c -0.145,-1.16053 -0.34148,-2.03221 -0.43662,-1.93707 -0.0951,0.0951 -0.0543,1.1225 0.0906,2.28303 0.145,1.16052 0.34148,2.0322 0.43662,1.93706 0.0951,-0.0951 0.0543,-1.1225 -0.0906,-2.28302 z m 1.58454,0.64147 c -0.0943,-0.36074 -0.17141,-0.0656 -0.17141,0.65588 0,0.72148 0.0771,1.01662 0.17141,0.65589 0.0943,-0.36074 0.0943,-0.95104 0,-1.31177 z m -0.37342,-2.24162 c -0.095,-0.36466 -0.17903,-0.15705 -0.18666,0.46136 -0.008,0.6184 0.0701,0.91676 0.17277,0.66302 0.10266,-0.25375 0.10891,-0.75972 0.0139,-1.12438 z m -0.37617,-2.630673 c -0.0943,-0.360737 -0.1714,-0.06559 -0.1714,0.655883 0,0.72148 0.0771,1.01662 0.1714,0.65589 0.0943,-0.36074 0.0943,-0.95104 0,-1.311773 z"
         id="path3326"
         inkscape:connector-curvature="0"
         transform="translate(-60,-40)" />
      <path
         style="fill:none;fill-opacity:0;fill-rule:nonzero;stroke:#1f77b4;stroke-width:0.60972822;stroke-miterlimit:4;stroke-dasharray:none;stroke-dashoffset:0;stroke-opacity:0"
         d="m 319.93064,323.10249 c 0.12343,-1.18528 0.99931,-13.45502 1.9464,-27.26609 0.9471,-13.81107 1.79872,-25.49051 1.8925,-25.95432 0.15397,-0.76151 0.38786,-0.84328 2.41211,-0.84328 h 2.24161 v 1.14721 c 0,1.80514 1.8172,46.15935 2.08354,50.85513 l 0.23916,4.2164 h -5.51986 -5.51987 z"
         id="path3328"
         inkscape:connector-curvature="0"
         transform="translate(-60,-40)" />
      <path
         style="fill:none;fill-opacity:0;fill-rule:nonzero;stroke:#1f77b4;stroke-width:0.60972822;stroke-miterlimit:4;stroke-dasharray:none;stroke-dashoffset:0;stroke-opacity:0"
         d="m 319.93064,323.10249 c 0.12343,-1.18528 0.99931,-13.45502 1.9464,-27.26609 0.9471,-13.81107 1.79872,-25.49051 1.8925,-25.95432 0.15397,-0.76151 0.38786,-0.84328 2.41211,-0.84328 h 2.24161 v 1.14721 c 0,1.80514 1.8172,46.15935 2.08354,50.85513 l 0.23916,4.2164 h -5.51986 -5.51987 z"
         id="path3330"
         inkscape:connector-curvature="0"
         transform="translate(-60,-40)" />
      <path
         style="fill:none;fill-opacity:0;fill-rule:nonzero;stroke:#1f77b4;stroke-width:0.60972822;stroke-miterlimit:4;stroke-dasharray:none;stroke-dashoffset:0;stroke-opacity:0"
         d="m 91.555762,381.75737 c 4.27e-4,-0.0515 0.928037,-12.31521 2.061353,-27.25262 1.133316,-14.9374 2.060575,-27.3758 2.060575,-27.64088 0,-0.39153 18.52405,-0.48195 98.72913,-0.48195 h 98.72913 l 3.11486,9.36978 c 2.81453,8.46634 3.19451,9.36979 3.9408,9.36979 0.68895,0 0.8607,-0.26418 1.03552,-1.59286 0.23531,-1.78837 1.33551,-15.32598 1.33551,-16.43297 0,-0.67525 0.36229,-0.71374 6.71647,-0.71374 h 6.71647 l 0.19477,1.03067 c 0.10713,0.56687 0.29643,2.37993 0.42067,4.02901 0.43003,5.70808 0.54918,6.18406 1.54803,6.18406 0.60538,0 0.89153,-0.21195 0.88546,-0.65588 -0.018,-1.31821 4.55358,-66.27018 4.72191,-67.0877 0.15672,-0.76116 0.39191,-0.84328 2.41523,-0.84328 2.19522,0 2.24164,0.0213 2.24292,1.03068 7.5e-4,0.56687 1.01236,25.65448 2.24808,55.75025 1.23572,30.09576 2.24707,55.01472 2.24744,55.37545 6.4e-4,0.6233 -5.99574,0.65589 -120.68222,0.65589 -66.37559,0 -120.682537,-0.0422 -120.682108,-0.0937 z"
         id="path3332"
         inkscape:connector-curvature="0"
         transform="translate(-60,-40)" />
      <path
         inkscape:connector-curvature="0"
         class="domain"
         d="m 1130.2807,0.684243 v 0 399.999997 0"
         id="path298-4"
         style="fill:none;stroke:#000000;stroke-width:1px;stroke-opacity:1" />
      <path
         style="opacity:0.4;fill:url(#Wavy);fill-opacity:1;fill-rule:nonzero;stroke:none;stroke-width:0.2;stroke-miterlimit:4;stroke-dasharray:none;stroke-dashoffset:0;stroke-opacity:0.96279069"
         d="m 61.480469,98.210938 v 24.380862 24.38281 h 52.898441 52.90039 l 1.10937,3.17969 1.10742,3.17968 h 11.30469 11.30274 l -0.62305,-3.44531 c -0.34355,-1.89488 -2.08387,-13.22349 -3.86719,-25.17578 -1.78332,-11.9523 -3.47264,-22.80535 -3.7539,-24.11719 l -0.51172,-2.384762 h -60.9336 z m 2.548745,41.089482 -3.44523,12.25622 v 2.1875 h 53.462896 c 42.71085,0 53.45305,-0.0337 53.41015,-0.16602 -0.0296,-0.0911 -0.27123,-0.88129 -0.53515,-1.75585 -0.26398,-0.87456 -0.54104,-1.78463 -0.61524,-2.02149 l 3.31047,-6.5251 -52.79297,-0.53003 z m -3.44523,15.50231 v 22.19532 22.19531 H 113.97852 167.375 l 0.18945,0.63086 c 0.87563,2.91969 -8.4451,23.97065 -8.3998,24.04935 0.0315,0.0547 16.63357,-13.01811 22.5248,-13.01811 h 10.71289 l 0.0859,-1.22656 c 0.048,-0.67414 0.1198,-1.38943 0.1582,-1.58985 l 0.0703,-0.36328 h -4.36914 -4.36719 l -0.31836,-1.02734 c -0.17515,-0.56482 4.14719,-13.51992 -0.11392,-27.49367 l -15.69858,-24.34813 -53.63281,-0.002 z m 120.419926,0.0332 -11.4668,0.0332 7.66992,25.11133 c 4.2185,13.81073 7.73084,25.33412 7.80664,25.60742 l 0.13867,0.49609 h 68.56836 l 20.90111,-1.39962 52.30732,7.65847 11.44356,4.57679 11.44356,4.5768 91.13079,-2.19468 3.50651,-17.22846 8.3676,-19.18988 9.16266,1.18849 7.04252,10.63412 8.3676,4.02363 6.77749,-0.91944 8.10258,1.67815 12.22211,20.13127 10.07847,-19.19982 16.62543,-1.01914 8.49064,-23.95892 8.08932,-12.18489 268.51924,-65.54255 -266.5424,0.442221 -19.40795,58.325819 -299.09321,0.18446 c -8.03054,0.007 -57.52611,-0.50384 -58.65995,-0.48124 1.74211,-0.0356 4.77272,-0.0566 9.25977,-0.0566 h 10.875 l -0.084,-0.61914 -0.1289,-0.66407 c -0.0244,-0.0244 -5.20626,-0.0284 -11.51367,-0.01 z m -120.228519,46.3164 v 4.76954 4.76953 l 54.099609,5.43448 c 23.75582,-1.59617 47.34857,3.40392 62.49949,-16.43153 -2.52051,-8.43221 -15.07557,-7.04093 -18.48505,-15.50314 l -38.05879,9.80565 z m 124.201169,2.79297 c 0.0773,0.20712 0.16506,0.44497 0.20313,0.51563 l -0.0332,-0.002 z m 467.72524,12.71175 173.10328,-3.20266 -0.43445,-8.84687 c -0.0483,-0.98245 -9.07142,-106.81843 -9.07142,-106.89323 l -124.47344,27.51517 -81.20361,4.10882 -53.75358,36.094 16.68693,47.46969 c 5.8138,16.53864 32.74693,4.29176 79.14629,3.75508 z m -458.44789,-8.98326 0.0879,1.02734 c 0.0481,0.56481 0.12051,1.28011 0.16211,1.58985 l 0.0762,0.56445 67.22663,8.995 c 80.75695,0.18971 149.24754,-27.68017 68.81459,-27.68017 313.38288,-75.00775 -115.02823,15.50353 -136.36743,15.50353 z m -12.4043,4.53515 c -9.51197,0 -10.23131,0.067 -9.98047,0.92774 1.69956,5.83186 13.22506,43.4315 13.4043,43.72851 0.13194,0.21864 -0.79327,0 0,0 l 0.20981,-3.18125 3.43971,-19.87521 3.17665,-21.59979 z m 78.60156,0 c -64.79791,0 -65.46094,0.0102 -65.46094,1.04493 0,0.57492 0.83515,10.49692 1.85547,22.04882 1.02032,11.5519 3.31307,21.08716 3.31307,21.34992 0,0.26276 0.42432,0.60907 2.72404,0.60907 h 2.19401 c 0.94087,-6.05362 3.4986,-11.85683 4.04818,-16.82813 0.81209,-7.36087 1.6013,-13.38 1.75391,-13.375 0.15261,0.005 2.40512,5.01731 5.0039,11.13868 2.59877,6.12136 4.98436,11.34315 5.30078,11.60351 0.31642,0.26035 2.41251,1.00656 4.66016,1.6582 l 4.08789,1.1836 0.3457,2.31054 0.34571,2.3086 6.77117,7.30844 2.72965,-7.70597 2.53407,-11.13056 c 3.2286,-14.1811 3.1744,-13.91332 4.25808,-13.91332 0.79117,0 1.58605,1.1771 2.66871,12.32318 l 2.69392,12.7207 3.95963,0.39753 h 5.94727 l 0.62304,-5.43164 c 0.34177,-2.98808 0.66912,-5.79124 0.72852,-6.22852 0.0594,-0.43728 0.56244,-0.79492 1.11719,-0.79492 0.81649,0 1.40351,1.18708 3.08398,6.22852 l 2.07617,6.22656 h 2.83594 c 2.24468,0 2.89102,-0.1934 3.10352,-0.92774 0.31193,-1.07797 5.63281,-25.51093 5.63281,-25.86523 0,-0.13074 0.47752,-0.23828 1.06055,-0.23828 12.30891,14.67473 3.56345,2.1925 11.36159,14.17789 l 5.74019,8.08304 c 3.67372,-4.44222 7.43567,-18.91032 10.10372,-18.02096 1.10546,0 0.62854,2.59276 1.43707,12.98659 0.84847,10.90733 0.13845,9.80469 6.30664,9.80469 l 2.62451,-0.56219 6.90814,-44.35667 c -42.545,-0.62346 -31.75883,-2.17346 -66.47796,-0.13388 z m 68.37134,22.52735 c 0.42557,9.62014 0.78111,18.6231 0.78711,20.00781 l 0.01,2.51758 h 6.0957 l 14.15373,-0.37479 1.51087,-21.32095 c 0.006,-0.80167 4.66894,-11.13555 5.0933,-20.90145 1.96447,-16.05708 -22.42783,-3.65012 -26.53126,-3.87714 -4.10343,-0.22701 -1.78527,8.83732 -1.11945,23.94894 z m 229.45209,50.49865 8.89075,-40.89208 4.08856,-7.70421 5.34961,-7.45312 0.67187,8.08007 7.97847,165.73844 c 0.46523,-13.13591 7.70813,-173.55679 8.7813,-173.55679 l 8.04718,20.40816 7.69724,-5.13449 10.09933,-6.08032 9.44783,38.7852 5.87386,-31.01707 3.28182,-13.40507 1.48828,9.96679 c -1.54131,34.409 66.63637,13.24414 88.91409,13.24414 h 88.20703 l 1.13086,4.90235 c 0.62218,2.69656 1.2557,5.31992 1.40625,5.83008 0.23564,0.79849 0.96952,0.92773 5.27343,0.92773 2.74978,0 6.7312,-0.0453 6.7441,-0.26397 0.0129,-0.21864 0.61626,-13.24685 -2.96772,-28.32957 l -2.87366,-25.82705 -137.30115,-1.22603 C 644.88614,127.57835 547.06129,129.7237 549.51138,163.70265 Z M 60.775391,212.27734 v 27.83008 27.82813 h 20.130859 20.13281 l 0.26367,-1.19141 c 0.14548,-0.65592 0.63681,-4.17437 1.0918,-7.81836 0.455,-3.64399 0.53942,-4.88908 0.67278,-5.52079 0.1943,-0.9204 3.10493,-3.47203 7.16763,-4.82552 6.28951,-0.64107 1.18456,-2.88318 10.15573,-10.5325 l 9.87691,0.54873 2.57812,-2.95312 c 1.41751,-1.62458 3.60991,-3.94677 4.87305,-5.16016 l 2.29687,-2.20508 4.77149,0.81055 c 2.62368,0.44621 4.83401,0.86765 4.91211,0.93555 0.178,0.15475 7.25992,33.86445 7.26992,35.12925 0.006,0.83876 -1.40339,0.3977 5.28611,0.3977 l 2.66128,1.01334 c 8.61577,-5.47492 10.74191,-10.44596 13.3763,-6.50913 9.55104,9.21021 10.45829,3.89423 7.19042,-6.37066 l -2.20659,-13.9954 c -6.02973,-39.02559 -28.67932,-28.44753 -68.08525,-27.27643 z m 289.622289,4.26149 c 0.72395,11.07774 -3.70566,23.65992 -3.70266,24.46159 l 0.55049,6.70411 -5.29925,17.99027 17.23161,-8.43281 0.32032,-3.3125 c 0.17558,-1.822 0.70312,-8.67909 1.17383,-15.23828 0.23532,-3.27959 0.48863,-6.30316 0.70709,-8.53265 0.21846,-2.22948 0.40206,-3.66488 0.49798,-3.76813 0.0959,-0.10327 0.25428,-0.15317 0.43229,-0.15035 0.17801,0.003 0.37566,0.0584 0.55014,0.16595 0.22068,0.13639 0.95815,1.22106 1.69689,3.59814 0.73873,2.37707 1.47873,6.04656 1.70449,11.3526 l 2.23855,15.62018 14.97725,0.26502 h 18.68555 l 2.63867,-3.7461 c 2.88222,-4.09094 9.53628,-23.24215 10.17703,-18.19243 l 6.04082,13.72298 3.49396,7.68551 13.16905,0.53004 0.30274,-2.25195 c 0.16635,-1.23896 1.02639,-10.12397 1.91015,-19.74415 21.8249,-52.95163 -90.35699,-33.28894 -89.49699,-18.72704 z m 394.24055,61.45577 c 48.53798,0 74.9977,-10.82894 74.9907,-11.04758 1.82086,-1.121 -1.21985,-5.26057 -1.96246,-7.8171 l -0.61975,-3.05907 -88.8064,-2.79437 c -28.78389,-0.52046 -68.14537,-15.6357 -71.99295,-2.27864 l -5.2477,18.21763 15.54303,-3.12348 c 14.05221,-2.82388 50.53653,11.90261 78.09553,11.90261 z M 236.47287,236.93646 c -2.98186,0.0151 -5.5881,22.4068 -5.5881,22.55986 0,0.30094 1.00345,6.67799 1.2207,7.75782 l 0.14648,0.72851 c 1.62536,2e-5 1.44016,17.3987 4.82813,0 0.84893,0.12411 3.07053,-32.03429 -0.60721,-31.04619 z m -35.56562,17.67045 -0.31519,6.94715 c 0.11751,0.97915 0.82294,1.59173 0.71814,2.98546 l -0.2898,3.85438 0.3345,5.69788 c 3.56412,0 1.48909,-3.34342 1.85972,-7.51133 0.12831,-1.44295 1.25234,-3.08743 1.36311,-3.6543 l 2.58633,-3.54892 -4.32001,-15.90106 z m 51.29778,4.90283 c 3.31212,12.6817 1.29013,27.78379 7.74319,-0.13251 h -3.67283 z m 18.27349,-0.13251 1.35546,3.93555 c 0.74588,2.16498 1.42592,3.86705 1.51172,3.78125 0.0858,-0.0858 0.53926,-1.85831 1.00782,-3.9375 l 0.85156,-3.7793 h -2.36328 z m 48.65743,0.13251 -4.96668,-0.0533 c 2.06433,31.71201 8.31821,1.65478 4.96668,0.0533 z m 10.82935,-0.13251 0.39392,8.3047 c 0.0704,1.28835 11.88062,-1.14446 11.99281,-0.0622 l 7.22609,0.37668 h 4.44336 4.44336 l 0.19922,-1.96679 c 0.10912,-1.08222 0.2878,-3.0222 0.39649,-4.31055 l 0.19726,-2.3418 h -5.17187 z m 38.90059,0 0.53403,3.10439 c 10e-4,0.97915 -0.0237,1.064 0.10773,2.45542 -0.58826,-0.49484 0.85095,1.95883 0.90083,3.05933 h 2.03302 7.0664 v -0.89257 c 0,-0.58918 0.26571,-0.96335 0.7793,-1.09766 0.60936,-0.15935 0.86092,0.0361 1.16016,0.89453 l 0.38281,1.0957 h 7.05469 7.05273 l 0.65234,-1.96679 c 0.35857,-1.08222 4.81872,-7.73693 5.57232,-8.76761 5.16717,-4.92468 -11.53725,-3.69251 -16.82378,-3.69401 z m 55.00028,-7.32099 3.29399,15.94013 h 4.81054 4.81055 l 0.21289,-1.77929 0.45313,-4.31055 0.24023,-2.5293 z M 60.775391,268.99637 v 28.0918 28.0918 h 16.617187 16.617188 l 0.33789,-4.75781 c 0.279106,-3.93208 5.474436,-43.86134 6.466794,-49.70313 l 0.29102,-1.72266 H 80.941406 Z m 269.693819,0.52253 3.92118,104.05359 c 1.04442,27.71475 1.42848,40.3914 2.46197,40.58495 1.0335,0.19356 1.92139,-16.60129 2.91338,-29.80832 0.99199,-13.20704 4.5032,-32.61368 5.12811,-45.11893 0.81214,-16.25193 2.16134,-12.5378 3.01077,-9.05709 9.85322,33.61925 4.91816,-13.35862 8.84316,-31.86563 l 1.80886,-29.1861 h -4.57031 z m 40.52524,-0.13251 1.94917,13.00743 6.197,-12.4287 -0.008,-0.84375 -3.93667,0.53004 z m 18.07,-0.26502 c -3.60737,0 -6.56145,0.12665 -6.56445,0.28125 -0.003,0.1546 1.47466,4.5256 3.28125,9.71289 1.8066,5.18728 3.34066,9.37379 3.41016,9.30469 0.11153,-0.1108 6.42468,-18.96784 6.42968,-19.20508 0.001,-0.0515 -2.94927,-0.0937 -6.55664,-0.0937 z m 43.10547,0 c -2.57912,0 -4.69828,0.12665 -4.70898,0.28125 -0.0107,0.1546 1.29806,7.89848 2.90625,17.20899 1.60819,9.31051 2.9726,16.87896 3.0332,16.81836 0.0606,-0.0606 0.77261,-7.17321 1.58203,-15.80469 0.80942,-8.63147 1.56224,-16.32465 1.67383,-17.09766 l 0.20313,-1.40625 z m 283.50801,31.39337 10.52053,-11.19265 13.01401,19.26837 7.22292,-10.67272 2.25694,-3.45797 c 1.98907,6.67432 1.14976,13.59227 1.52764,18.17001 0.43648,5.28773 1.05864,20.70593 2.9646,23.14439 1.90595,2.43846 3.60014,2.047 16.1375,0.59949 12.53736,-1.44751 62.20791,-5.75777 92.64554,-12.31382 0,-0.30203 -41.27431,-53.28603 -41.60628,-54.37211 -0.26853,-0.87856 -6.85512,-0.22267 -90.40821,-0.22267 -29.75317,-1.73087 -80.48178,-37.58632 -88.83731,-25.44711 l 5.11412,42.58873 3.75942,23.06461 c 1.24433,7.6342 8.60002,11.45897 11.81744,16.88056 l 9.84978,-29.1251 13.59771,9.66582 c 1.06376,2.47112 4.4996,7.5704 4.58408,9.08587 -0.32409,1.86568 10.19889,-10.96506 9.044,-8.53825 0.90586,2.83896 5.5621,10.30376 6.72041,12.07783 -0.28672,0.63897 7.55629,-13.1983 10.07516,-19.20328 z m 106.19512,-30.96568 c -0.93259,0.0197 -1.51172,0.067 -1.51172,0.13867 0,0.31305 12.00979,50.60199 12.76367,53.44531 l 0.52734,1.98633 h 71.65673 106.41553 178.0703 v -21.99609 -21.99414 l -178.2246,-0.13477 -178.2246,-0.13281 -1.34765,-5.56445 -1.34766,-5.56641 -5.14453,-0.15039 c -1.41496,-0.0417 -2.70023,-0.051 -3.63281,-0.0312 z m 27.67778,97.21161 2.33893,-12.9321 4.03993,-9.75803 c 2.23917,-5.40849 5.11976,-9.40736 5.29101,-9.4082 0.17125,-8.7e-4 1.46285,10.61136 2.8711,23.58398 l 2.56054,23.58789 h 16.04102 c 14.82735,0 16.06039,-0.0704 16.29492,-0.92773 0.13955,-0.51016 1.39939,-8.29005 2.79883,-17.28711 1.74589,-11.22435 2.76582,-16.44311 3.25,-16.62891 0.38809,-0.14892 0.81258,-0.16398 0.94336,-0.0332 0.13078,0.13078 2.16787,6.66063 4.52734,14.50977 2.35947,7.84915 4.37861,14.36041 4.48633,14.46875 0.10773,0.10833 2.05377,-0.0674 4.32617,-0.39063 3.19463,-0.45445 5.17299,-0.43008 8.72266,0.10742 4.37491,0.66246 4.74097,0.82281 7.76367,3.44141 l 3.17188,2.74805 52.5332,-0.0156 52.53318,-0.0176 1.7168,-1.85937 1.7188,-1.85742 2.7617,1.87109 c 2.3791,1.61166 3.1903,1.87109 5.8535,1.87109 2.9335,0 3.2494,-0.13492 6.1875,-2.61914 l 3.0977,-2.61718 3.8847,2.62109 3.8828,2.62109 19.5078,-0.041 19.5079,-0.0391 3.4355,-1.52344 3.4356,-1.52344 1.6152,1.56055 1.6152,1.56054 h 33.7656 33.7637 V 357.1875 l -1.6434,-45.44647 -165.7155,-9.01481 -163.6486,16.29829 -105.80204,16.77422 c -3.62897,0.57535 2.61814,27.10672 2.7638,34.40593 -3.48197,0.7398 7.38662,43.15349 7.83642,43.68884 4.91545,5.85036 5.65402,5.6827 8.72846,9.09187 2.15727,2.39215 3.78304,4.68828 8.3863,2.38726 2.81362,-1.40643 7.89051,-12.88007 8.79758,-11.67234 2.32073,3.08994 9.63698,12.97341 25.46584,15.54379 7.61264,1.23619 22.00456,4.65224 26.85396,-1.56501 3.73963,-4.79445 2.26791,-20.62732 3.55384,-31.46168 3.74244,-11.21593 2.974,-19.17547 4.17927,-29.45672 z M 60.775391,326.24042 v 27.82618 27.82812 h 14.460937 14.458984 l 1.990235,-26.90039 c 1.094569,-14.79462 1.981273,-27.31601 1.970703,-27.82617 -0.01789,-0.86306 -1.161238,-0.92774 -16.449219,-0.92774 z M 913.83937,309.03187 c -73.74028,-0.001 -79.69618,17.41166 -79.69093,18.07381 0.004,0.51059 0.15234,1.46518 0.32812,2.12109 l 0.31836,1.19336 h 177.53318 177.5313 l -0.1641,-1.98828 -0.1641,-1.98633 -177.6953,-0.13476 c -42.24384,-0.0317 -64.73193,-13.5449 -89.31202,-13.5452 z m 275.92623,74.60505 -32.748,0.006 -32.7461,0.008 1.123,1.0293 c 0.6184,0.56683 1.4745,1.32663 1.9024,1.6875 l 0.7793,0.65625 4.2812,-0.45117 4.2813,-0.44922 4.4101,1.24609 4.4102,1.24805 4.4336,-1.70313 4.4336,-1.70508 4.8125,-0.23242 c 2.6463,-0.12882 4.8266,-0.21131 4.8476,-0.17968 0.021,0.0308 1.998,10.42813 4.3946,23.10546 2.3965,12.67732 4.4201,23.25661 4.4961,23.50782 0.1223,0.40137 0.6279,0.62246 4.1582,1.82617 l 4.0156,1.37109 2.625,-0.0937 c 1.443,-0.0508 3.4023,-0.0922 4.3554,-0.0918 l 1.7344,-0.002 v -25.39258 z m -322.72458,0.0176 0.0156,1.19336 c 0.009,0.65592 0.8149,8.40642 1.79102,17.22461 l 1.77539,16.0332 2.01562,2.51758 c 1.10916,1.385 3.06476,3.7703 4.34571,5.30078 l 2.33007,2.7832 3.80078,-0.002 3.80274,-0.002 4.34961,-12.85156 c 3.73921,-11.0484 4.53782,-14.06453 5.69726,-21.50195 0.74174,-4.75797 1.34766,-9.11157 1.34766,-9.67383 0,-0.9866 -0.54467,-1.02148 -15.63477,-1.02148 z m 121.60742,0.002 c -6.94489,0 -13.89607,0.0106 -19.17774,0.0293 l -19.20703,0.0664 4.26563,3.07617 4.26367,3.07618 4.35156,-1.45313 4.35156,-1.45312 4.54102,0.58593 c 4.10683,0.52988 4.95331,0.7356 8.88281,2.14844 l 4.34375,1.56055 4.41211,-2.24609 c 2.42686,-1.2356 4.52814,-2.24329 4.66797,-2.23829 0.13984,0.005 2.10205,1.07305 4.36133,2.37305 2.25932,1.3 4.21772,2.36995 4.35152,2.37695 0.1338,0.007 2.188,-1.18307 4.5645,-2.64453 l 4.3203,-2.6582 4.3965,1.35742 c 3.877,1.19731 4.4497,1.31359 4.8437,0.97852 0.2458,-0.209 1.6334,-1.38305 3.0821,-2.60938 l 2.6328,-2.23047 -19.1094,-0.0664 c -5.2554,-0.0187 -12.19378,-0.0293 -19.13866,-0.0293 z m 49.15426,0.0668 c -2.6034,0 -4.6831,0.0494 -4.6211,0.11132 0.062,0.0619 1.2773,0.98594 2.7012,2.05274 1.424,1.06679 2.6401,1.94422 2.7031,1.94922 0.063,0.005 0.9789,-0.919 2.0332,-2.05274 l 1.9161,-2.06054 z m 41.67,0.043 -3.4825,0.0508 3.541,2.19531 c 1.9475,1.20813 3.5961,2.20012 3.6641,2.20312 0.068,0.003 1.666,-0.98621 3.5488,-2.19726 l 3.4219,-2.20117 -3.6055,-0.0508 c -1.9836,-0.028 -5.173,-0.028 -7.0878,0 z M 60.775391,384.01367 v 25.48438 25.48437 l 3.578125,-0.43945 c 1.967756,-0.24123 5.366338,-0.35862 7.552734,-0.26172 4.677383,0.20725 12.222436,-0.33812 13.220703,-0.95508 0.515794,-0.31878 1.163564,-6.54193 2.46875,-23.67969 0.97377,-12.78609 1.77871,-23.78353 1.787109,-24.43945 l 0.01563,-1.19336 h -14.3125 z"
         id="path3447"
         inkscape:connector-curvature="0"
         sodipodi:nodetypes="ccccccccccscccccccscccccccccccccscccccccccccccccccccccccccccccccccccccccscccccccccccccccccccsccccsccccccccscscccsscssscccsccccccccsccccccsccscssccccscccccccccccsccccccccccccccccccscccccscscccccccccccccccsccccccscccccccscscscccccccccscccccccscscccccccccsccccccccccccccccscccccccccccccccccccsccccccsccccccccccccccccccccsccsssscccccccccsccccsssccsccsccccccssscccsccsscccccccscscccccscccscsscsscccccccsccccccccccccccccccccccccsssssscccscsccccccccscccccccccccccsccccccccccccccccccccsscsccccccccccccccccccccscccccccccccccccccccccccccsccccccccscccc"
         transform="translate(-60,-40)" />
      <g
         id="g4550">
        <rect
           y="-31.351763"
           x="942.94232"
           height="50.596863"
           width="181.02429"
           id="rect4538"
           style="opacity:1;fill:#ffffff;fill-opacity:1;fill-rule:nonzero;stroke:none;stroke-width:0.2;stroke-miterlimit:4;stroke-dasharray:none;stroke-dashoffset:0;stroke-opacity:1" />
        <g
           id="g4528">
          <text
             xml:space="preserve"
             style="font-style:normal;font-weight:normal;font-size:13.33333302px;line-height:1.25;font-family:sans-serif;letter-spacing:0px;word-spacing:0px;fill:#000000;fill-opacity:1;stroke:none"
             x="983.94977"
             y="-19.385067"
             id="text3989"><tspan
               sodipodi:role="line"
               id="tspan3987"
               x="983.94977"
               y="-19.385067">reserved resources</tspan><tspan
               sodipodi:role="line"
               x="983.94977"
               y="-2.7184007"
               id="tspan3991">allocated resources</tspan><tspan
               sodipodi:role="line"
               x="983.94977"
               y="13.948265"
               id="tspan3993">used resources</tspan></text>
          <rect
             style="fill:none;fill-opacity:1;fill-rule:nonzero;stroke:none;stroke-width:1;stroke-miterlimit:4;stroke-dasharray:none;stroke-dashoffset:0;stroke-opacity:1"
             id="rect4461"
             width="27.959343"
             height="15.106008"
             x="952.36749"
             y="-11.996468" />
          <rect
             style="opacity:1;fill:url(#Strips1_2);fill-opacity:1.0;fill-rule:nonzero;stroke:none;stroke-width:0.2;stroke-miterlimit:4;stroke-dasharray:none;stroke-dashoffset:0;stroke-opacity:1"
             id="rect4502"
             width="27.959351"
             height="15.106008"
             x="950.36749"
             y="-29.102474" />
          <rect
             style="opacity:1;fill:url(#pattern4514);fill-opacity:1;fill-rule:nonzero;stroke:none;stroke-width:0.2;stroke-miterlimit:4;stroke-dasharray:none;stroke-dashoffset:0;stroke-opacity:1"
             id="rect4512"
             width="29.51395"
             height="11.002823"
             x="950.36749"
             y="-11.996467" />
          <rect
             style="opacity:1;fill:url(#pattern4518);fill-opacity:1;fill-rule:nonzero;stroke:none;stroke-width:0.2;stroke-miterlimit:4;stroke-dasharray:none;stroke-dashoffset:0;stroke-opacity:1"
             id="rect4516"
             width="27.605982"
             height="12.057637"
             x="944.72089"
             y="3.10954" />
          <path
             style="opacity:1;fill:url(#pattern4471);fill-opacity:1;fill-rule:nonzero;stroke:#050505;stroke-width:0.035;stroke-miterlimit:4;stroke-dasharray:0.21, 0.035;stroke-dashoffset:0;stroke-opacity:1"
             d="m 546.69922,167.33398 c -1.49618,0 -6.97271,11.01818 -10.53711,21.19922 l -4.11523,11.75 -4.50586,-0.25 c -6.87211,-0.38299 -12.03661,0.8163 -13.04493,3.0293 -0.45656,1.00206 -0.83007,1.97342 -0.83007,2.16016 0,0.18673 5.89976,0.33984 13.11132,0.33984 l 17.42143,9.18239 0.10201,-17.98903 4.41211,-8.80859 -0.79297,-10.30665 c -0.43578,-5.66872 -0.98421,-10.30664 -1.2207,-10.30664 z m -93.27344,16.87891 -3.96094,8.98828 c -2.17809,4.94339 -3.97212,9.74818 -3.98632,10.67578 l -0.0254,1.68555 27.53534,8.8076 21.16388,-8.8076 -1.19922,-2.51367 c -0.99754,-2.09185 -1.81491,-2.65708 -4.85742,-3.35938 -2.01179,-0.46438 -5.18546,-0.63484 -7.05273,-0.3789 -2.7055,0.37083 -4.34212,0.0593 -8.06055,-1.52735 -4.2108,-1.79671 -4.99702,-2.50058 -8.04101,-7.22265 -3.56095,-5.52402 -3.90507,-5.77013 -8.56836,-6.12305 z m -8.68945,28.07813 -0.3418,1.69531 c -0.3099,1.53799 -4.22642,41.4023 -4.19922,42.74023 0.006,0.31179 25.38022,0.48068 56.38672,0.375 l 56.375,-0.1914 0.49024,-2.39844 c 0.2696,-1.31834 -0.22262,-11.26769 -1.09375,-22.11133 l -1.58399,-19.7168 H 530.57227 510.375 l -2.29102,5.30079 c -1.25966,2.91495 -2.59454,5.444 -2.96679,5.62109 -0.37224,0.17708 -2.06913,-2.2068 -3.77149,-5.29883 l -3.0957,-5.62305 -26.75586,-0.19726 z m -251.41016,4.74804 c -0.16987,-0.16987 -5.81216,38.70469 -5.75976,39.6836 0.0337,0.63004 10.52343,0.78968 10.52343,0.16015 0,-1.04494 -4.62175,-39.70183 -4.76367,-39.84375 z m -51.64062,13.69727 c -1.43436,0.12333 -2.63015,1.07125 -6.01367,4.125 l -4.91211,4.43359 h -4.93946 -4.93945 l -3.43945,4.67188 c -2.33674,3.17424 -4.83073,5.4914 -7.7793,7.23047 -4.30541,2.53932 -4.3421,2.59308 -4.82813,6.75976 -0.26945,2.3099 -0.69235,5.46376 -0.9375,7.00977 l -0.44531,2.81054 h 25.95703 c 14.27603,0 25.94429,-0.25133 25.92969,-0.56054 -0.0146,-0.3092 -1.62895,-8.26689 -3.58789,-17.6836 -2.36753,-11.3808 -3.92927,-17.31595 -4.6582,-17.70117 -0.60313,-0.31874 -2.31489,-0.76543 -3.80274,-0.99219 -0.62114,-0.0947 -1.12539,-0.14462 -1.60351,-0.10351 z m 141.33203,2.83594 c -0.13015,0.13015 -1.25586,4.92791 -2.50196,10.66211 -1.24608,5.73419 -2.44657,11.01681 -2.66796,11.73828 -0.3753,1.22298 0.76582,1.31054 16.86914,1.31054 h 17.27343 l -0.39062,-2.06054 c -0.21483,-1.13374 -0.9655,-5.20695 -1.66797,-9.05274 l -1.27734,-6.99414 -4.09571,8.30469 c -2.25253,4.56726 -4.27694,8.29806 -4.49804,8.28906 -0.22109,-0.009 -4.09238,-5.05996 -8.60352,-11.22461 -4.51114,-6.16465 -8.3093,-11.1028 -8.43945,-10.97265 z m 291.94336,1.11914 -3.39844,5.0664 c -3.18475,4.74734 -3.53311,5.77523 -5.52539,16.35547 -1.16925,6.20943 -2.12972,11.37546 -2.13672,11.47852 -0.007,0.1031 2.89009,0.18554 6.43945,0.18554 h 6.45508 l -0.44531,-8.05664 c -0.24446,-4.43191 -0.65622,-11.87622 -0.91602,-16.54297 z m -363.3086,0.36523 c -0.17288,-0.0337 -0.28464,0.15607 -0.36523,0.52539 -0.22057,1.01075 -1.10001,5.54901 -1.95313,10.08399 -0.85312,4.53497 -1.71436,9.00403 -1.91406,9.93164 l -0.36328,1.68554 h 10.88477 c 5.98578,0 10.87709,-0.25134 10.87109,-0.56054 -0.0298,-1.45952 -1.52711,-2.54168 -5.27734,-3.81055 l -4.08204,-1.38086 -3.88281,-8.89258 c -2.34108,-5.36191 -3.39931,-7.48089 -3.91797,-7.58203 z m 383.13868,0.1582 -0.48047,10.47266 c -0.26409,5.75983 -0.6739,13.08615 -0.91211,16.28125 l -0.4336,5.80859 h 16.28125 16.28125 l -0.44726,-1.68554 c -0.24663,-0.92761 -1.50129,-6.9145 -2.78711,-13.30469 -1.28581,-6.3902 -2.45758,-11.74348 -2.60352,-11.89649 -0.60529,-0.63457 -9.2823,4.90285 -13.5664,8.65821 l -4.61133,4.04297 -1.20508,-3.21289 c -0.6624,-1.76743 -2.17374,-5.90325 -3.35937,-9.18946 z m -348.16407,2.89258 c -0.14613,-0.14613 -1.22461,3.68839 -2.39648,8.51953 -1.17187,4.83114 -2.28576,9.20537 -2.47656,9.72071 -0.253,0.68334 0.85713,0.93554 4.10351,0.93554 h 4.45117 l -1.70703,-9.45508 c -0.93944,-5.20033 -1.82847,-9.57456 -1.97461,-9.7207 z m 18.53516,21.42578 c -3.13515,0 -3.19037,0.0449 -4.01758,3.33008 -0.46121,1.83164 -0.83789,3.6872 -0.83789,4.12305 0,0.48533 2.14496,0.79101 5.53516,0.79101 h 5.53515 l -1.51757,-4.12109 c -1.5141,-4.11021 -1.52869,-4.12305 -4.69727,-4.12305 z m 174.43359,0 -0.25781,4.12305 -0.25586,4.12305 h 57.9043 l 57.90625,-0.002 v -4.12109 -4.12305 h -57.64844 z m -70.83789,9.67578 -4.1914,0.22266 -4.19141,0.2207 -1.61133,22.48828 c -0.88666,12.36814 -1.81643,24.76406 -2.0664,27.54688 l -0.45508,5.05859 h 111.31836 111.31836 l -0.0176,-4.68359 c -0.009,-2.5767 -0.50521,-14.80571 -1.10352,-27.17383 -0.59831,-12.36813 -1.09652,-22.75287 -1.10742,-23.07812 -0.0109,-0.32529 0.61071,-9.37221 -2.99062,-9.25309 l -10.12461,9.09488 -1.60157,8.61914 c -0.88009,4.74112 -1.82709,9.88563 -2.10547,11.43164 -0.28244,1.56856 -0.94147,2.81055 -1.49218,2.81055 -1.02515,0 -1.41866,-2.66469 -2.40625,-16.30273 l -0.50196,-6.9336 -42.06273,-4.10777 c -54.82014,-5.35364 -74.28238,1.37166 -74.28297,2.60973 -3.5e-4,0.72147 -1.21807,12.38569 -2.24805,22.48632 -1.02999,10.10064 -1.87466,18.95432 -1.875,19.67579 -9.2e-4,1.91631 -2.15515,1.607 -2.5957,-0.37305 -0.20639,-0.92761 -1.72943,-9.61436 -3.38476,-19.30274 -1.65534,-9.68835 -3.18504,-18.37317 -3.4004,-19.30078 -0.38859,-1.67396 -13.47108,-21.79737 -21.53695,-10.6825 l -6.5275,8.995 -3.91601,12.36914 c -2.15365,6.80247 -4.10451,12.36719 -4.33594,12.36719 -0.23143,0 -2.27306,-5.37957 -4.53516,-11.95508 -2.26211,-6.57551 -4.3513,-11.71685 -4.64453,-11.42382 -0.29323,0.29302 -1.92133,4.2392 -3.61719,8.76953 -2.77859,7.42278 -4.4707,10.82735 -4.4707,8.99414 0,-0.36742 -0.72914,-4.83456 -1.61914,-9.92774 z m -96.6914,0.0137 -7.53062,-6.15662 -5.28384,6.5863 -1.4375,5.8418 c -0.85816,3.48345 -1.78114,5.73172 -2.28515,5.57031 -0.46484,-0.14885 -1.34544,-2.86245 -1.95703,-6.02929 l -1.11133,-5.75782 -12.35245,-8.62021 -1.48154,8.62021 -0.73437,2.81055 c -0.40295,1.54602 -1.02626,3.99128 -1.38672,5.43359 -1.16102,4.64565 -2.75289,3.67888 -3.96875,-2.41015 l -1.08984,-5.45899 -24.28321,-10.27513 -2.21289,9.86693 -0.85156,4.32617 c -0.4678,2.37995 -0.99963,4.77654 -1.18164,5.32617 -0.51962,1.56914 -2.18185,0.57792 -2.40039,-1.43164 -0.10858,-0.99839 -0.3835,-3.2498 -0.60938,-5.00195 l -0.41015,-3.18555 -39.52432,-10.49416 -55.07819,3.93531 -5.245149,32.60768 c -1.95767,14.32641 -3.54689,26.80677 -3.53125,27.73438 l 0.02734,1.68554 H 213.50195 330.85742 l -0.4375,-6.93359 c -0.59252,-9.40364 -1.90234,-40.28218 -1.90234,-44.84766 v -3.6875 h -4.04102 c -4.55242,0 -4.41452,-0.19765 -5.35937,7.6836 -0.51314,4.28026 -2.03589,5.86814 -2.875,2.99804 -0.33544,-1.14735 -1.9668,-9.81085 -1.9668,-10.44531 0,-0.13042 -0.53434,-8.66914 -11.26631,-8.66914 -14.96144,0 -26.51242,0.96865 -26.72661,1.68708 -1.14905,3.854 -2.6736,11.68339 -3.45435,9.15394 z m 363.38893,-4.5619 c -3.40441,-0.0635 -2.56488,4.81329 -4.17409,13.42519 -1.44218,7.71803 -3.02873,5.83845 -4.88867,-5.79297 l -0.48242,-3.01563 -21.16486,-9.27562 -11.62421,9.27562 -0.0176,1.6875 c -0.009,0.92761 -0.50521,11.8057 -1.10352,24.17383 -0.59831,12.36812 -1.09652,24.08859 -1.10742,26.04688 l -0.0195,3.56054 h 33.41797 33.41992 l -2.20117,-2.81054 c -1.21086,-1.54601 -3.40232,-4.66611 -4.86915,-6.9336 -2.62923,-4.06446 -2.70593,-4.41676 -5.50585,-24.92383 l -2.83985,-20.80078 -1.10354,-10.77526 c -0.067,-0.65376 -5.2497,3.63792 -5.73604,3.62882 z m 90.6345,26.46034 -4.60742,5.70899 c -2.5345,3.14013 -7.06942,10.18993 -10.07812,15.66601 -3.0087,5.47608 -5.70014,9.96622 -5.98047,9.97852 -0.28032,0.0123 -1.90645,-2.50758 -3.61328,-5.59961 -1.70684,-3.09203 -3.397,-5.62109 -3.75586,-5.62109 -0.35885,0 -2.07435,1.68669 -3.8125,3.74804 -1.73816,2.06135 -3.37122,3.74805 -3.62891,3.74805 -0.2577,0 -1.8073,-2.21815 -3.44336,-4.92969 -2.25544,-3.73807 -4.31887,-5.9195 -8.53515,-9.01953 -3.05842,-2.24871 -5.80059,-3.82415 -6.09375,-3.50195 -0.49521,0.54426 -7.45899,22.02101 -7.45899,23.0039 0,0.24383 19.07793,0.44336 42.39649,0.44336 H 749.875 l -0.41406,-3.18554 c -0.22811,-1.75215 -0.78433,-7.23245 -1.23633,-12.17969 -0.45201,-4.94725 -0.91106,-9.0867 -1.01953,-9.19727 -0.10848,-0.11056 -1.94602,2.54728 -4.08399,5.90625 -2.13798,3.35896 -3.99829,5.98059 -4.13476,5.82422 -0.13646,-0.15638 -3.09432,-4.89951 -6.57227,-10.53906 z m -629.914059,35.125 -0.335937,1.68555 c -0.184918,0.92761 -1.043287,11.8057 -1.908203,24.17383 -0.864917,12.36812 -1.764528,24.09054 -1.998047,26.04883 l -0.423828,3.56054 h 120.751954 120.7539 l -0.01,-1.68554 c -0.006,-0.92761 -0.50584,-12.48116 -1.11133,-25.67383 -0.60549,-13.19266 -1.10723,-24.91509 -1.11523,-26.04883 l -0.0117,-2.06055 -105.0849,-9.93281 z m 260.228519,0 -0.4375,5.0586 c -0.24129,2.78283 -0.6528,7.67404 -0.91407,10.86914 -0.33095,4.04721 -0.77306,5.81051 -1.45703,5.81055 -0.54954,-1e-5 -2.30823,-3.38293 -3.99414,-7.6836 -1.65654,-4.22577 -3.03106,-7.177 -3.05468,-6.55859 -0.0237,0.6184 -1.05265,11.07434 -2.28711,23.23633 -1.23447,12.16198 -2.2451,22.70235 -2.2461,23.42382 -0.002,1.24387 6.21113,1.3125 120.01758,1.3125 h 120.02148 l -0.4414,-4.68554 c -0.24207,-2.5767 -0.84844,-15.05706 -1.34766,-27.73438 l -0.9082,-23.04883 -111.09982,-8.62021 z m 234.56054,0 -0.40039,3.18555 c -0.21939,1.75216 -0.75356,12.96798 -1.1875,24.92383 -0.43395,11.95586 -0.95296,23.00282 -1.15429,24.54883 l -0.36719,2.81054 h 84.01367 c 79.65603,0 83.99235,-0.0687 83.63477,-1.3125 -0.83661,-2.90993 -2.06775,-13.44314 -3.48438,-29.79492 -0.82149,-9.48223 -1.69298,-18.8425 -1.93555,-20.80078 l -0.4414,-3.56055 -29.93092,-4.4975 -55.41674,4.4975 -0.78906,2.06055 -0.78906,2.0625 -1.7793,-2.0625 -1.78125,-2.06055 -35.96966,-7.87062 z m 439.07816,57.60547 -2.6407,2.11719 c -1.4526,1.1648 -3.4467,2.76602 -4.4316,3.55859 -1.7281,1.39048 -1.9515,1.3974 -6.3594,0.17188 l -4.5683,-1.27149 -4.4024,2.7168 -4.4023,2.7168 -4.50978,-2.47852 -4.51172,-2.48047 -4.53321,2.16602 -4.5332,2.16602 -4.68359,-1.64063 c -7.02517,-2.46097 -12.81531,-2.79632 -17.80078,-1.0332 l -4.12305,1.45703 -4.63281,-3.27735 c -4.32524,-3.0607 -4.95365,-3.27734 -9.51172,-3.27734 -2.68463,0 -5.08897,-0.33773 -5.34375,-0.75 -0.28912,-0.46777 -7.59595,-0.75 -19.43555,-0.75 h -18.97266 l -1.6289,10.20899 c -1.19745,7.50999 -2.82315,13.70033 -6.15625,23.42382 -2.49176,7.26912 -4.62879,13.31568 -4.74805,13.43555 -0.11933,0.11987 -2.47825,-0.0138 -5.24219,-0.29687 l -5.02539,-0.51563 -4.65625,-5.76563 -4.65429,-5.76757 -1.78711,-17.36133 -1.78711,-17.36133 h -7.70703 -7.70703 l -0.40235,2.4375 c -0.2212,1.33988 -1.4297,11.37366 -2.68555,22.29883 -1.25592,10.92518 -2.401,20.21347 -2.54492,20.64062 -0.2224,0.66028 -7.5813,2.35564 -15.79883,3.63868 -3.29457,0.5144 -21.12772,-3.20155 -25.48632,-5.31055 -2.21896,-1.07369 -5.66174,-3.85991 -8.43946,-6.83008 -3.7713,-4.03258 -4.82704,-4.79638 -5.38476,-3.89258 -0.3816,0.61841 -2.2646,3.26782 -4.1836,5.88867 -3.26532,4.45955 -3.63745,4.73658 -5.8164,4.30079 -6.82665,-1.36533 -7.91012,-1.98064 -12.39649,-7.04102 l -4.50195,-5.07617 -2.875,-15.52735 -2.875,-15.52539 h -84.02734 l -84.02735,-0.002 -0.48437,9.93359 c -0.267,5.46258 -0.70802,15.74966 -0.98047,22.86133 -0.37169,9.70258 -0.73392,12.92969 -1.44922,12.92969 -1.1643,0 -1.61969,-3.98513 -2.17969,-19.11328 -0.2289,-6.18406 -0.62211,-14.70197 -0.875,-18.92774 l -0.46093,-7.68359 H 461.58984 341.50781 l -2.15234,22.11328 c -1.50828,15.49194 -2.42112,22.11328 -3.05078,22.11328 -1.19402,0 -1.64769,-4.34123 -2.15235,-20.61328 -0.23015,-7.42087 -0.61425,-15.76991 -0.85351,-18.55273 l -0.43555,-5.06055 H 212.32617 91.791016 l -0.4375,3.56055 c -0.240168,1.95829 -1.145807,13.34298 -2.013672,25.29883 -0.867864,11.95585 -1.842436,22.01773 -2.166016,22.35937 -0.32358,0.34163 -5.267583,0.78039 -10.986328,0.97461 -12.870177,0.43711 -15.269531,0.77984 -15.269531,2.18555 0,0.95319 71.028511,1.09179 564.435551,1.09179 563.93628,0 564.43558,-0.002 564.43558,-1.5 0,-1.34067 -0.4997,-1.5 -4.7266,-1.5 -4.4555,0 -14.0229,-2.47906 -14.0039,-3.6289 0,-0.27136 -1.9171,-10.69678 -4.2676,-23.16797 l -4.2734,-22.67383 h -3.8496 c -2.366,0 -5.6097,0.71282 -8.4121,1.85156 -4.4533,1.80954 -4.6534,1.82471 -8.5606,0.65039 -3.8145,-1.14647 -10.047,-1.4268 -12.7676,-0.57617 -0.7866,0.24595 -2.3762,-0.60546 -4.1836,-2.23828 l -2.914,-2.63281 -14.5567,0.16211 -14.5546,0.16406 -4.3243,2.80859 c -2.3785,1.54459 -4.7406,2.8048 -5.248,2.80078 -0.5073,-0.004 -3.0435,-1.35287 -5.6367,-2.99804 -4.5607,-2.89331 -4.9275,-2.99219 -11.1856,-2.99219 -5.0729,0 -6.7785,0.27949 -7.8984,1.29297 -1.3521,1.22363 -1.5477,1.22363 -3.6797,0 -1.3603,-0.78069 -3.8366,-1.29297 -6.252,-1.29297 -3.7699,0 -4.1343,0.17338 -6.373,3 -1.3061,1.64909 -2.7365,2.99805 -3.1797,2.99805 -0.4432,0 -2.6263,-1.37455 -4.8516,-3.05469 z"
             transform="translate(-60,-40)"
             id="path1735"
             inkscape:connector-curvature="0"
             sodipodi:nodetypes="sccccssccccscccccccscssccccccccccccccccccscssscccccccccscsccssccsccccccssccscsccccccsccscccccccccccccccccccssssccsscssccsccccccccccccccccccsccccssccscsccccsccscccsccccccccccccccccccscccccccccccscsscssccccscccccsccccccccscccsccscssscssccccccccccscccccsccccccscccscsccccccccsccssscccccccccccccccccccccccccscsccccccccccccccccscccsccccccccsccccccsscccccsccsssscccsccccccccccsccscsccc" />
        </g>
      </g>
      <path
         style="fill:url(#Strips1_2);fill-opacity:1;fill-rule:nonzero;stroke:none;stroke-width:0;stroke-miterlimit:4;stroke-dasharray:none;stroke-dashoffset:0;stroke-opacity:1"
         d="M 1129.8164,58.179688 H 374.57803 m 115.17878,-0.02318 -365.18988,-1.013654 c 0.3293,1.89487 0.88037,17.228123 2.61388,28.597373 1.73351,11.36926 3.42209,22.22231 3.7514,24.11719 l 0.59945,3.44531 c 166.05868,0.49464 170.69857,6.6822 340.04314,2.12584 m 658.8437,61.83281 1.1243,-119.452484 -40.0371,-0.05817 -40.0371,-0.05817 -40.0371,-0.05817 -40.03705,-0.05817 -40.0371,-0.05817 -40.0371,-0.05817 -40.0371,-0.05818 -94.98394,0.312618 0.77222,6.963524 3.71906,40.592732 0.77222,6.96352 0.77223,6.96352 0.77222,6.96353 0.77222,6.96352 L 774.09449,240 H 1130 Z"
         id="path3494"
         inkscape:connector-curvature="0"
         sodipodi:nodetypes="ccccscccccccccccccccccccccc" />
    </g>
  </g>
</svg>
